<svg width="30" height="30" viewBox="0 0 30 30" fill="none" xmlns="http://www.w3.org/2000/svg">
<g filter="url(#filter0_d_11_119)">
<circle cx="15" cy="14" r="14" fill="#246477"/>
</g>
<g filter="url(#filter1_d_11_119)">
<circle cx="15" cy="14" r="13" fill="white"/>
</g>
<g clip-path="url(#clip0_11_119)">
<path fill-rule="evenodd" clip-rule="evenodd" d="M15 5C15.4813 5 15.9173 5.19478 16.2326 5.50899C16.5482 5.8232 16.7434 6.25778 16.7434 6.73769C16.7434 6.89745 16.7217 7.05221 16.6813 7.19916L20.4786 10.1383C20.5015 10.1562 20.5219 10.1759 20.5401 10.1968H21.7893C22.1206 10.1968 22.4234 10.3328 22.643 10.551L22.6446 10.5526C22.8642 10.7724 23 11.0735 23 11.4036V19.7938C23 20.1258 22.8638 20.4275 22.6446 20.6461C22.4256 20.8643 22.1225 21 21.7893 21H8.20878C7.87718 21 7.57569 20.8646 7.35671 20.647C7.24415 20.5356 7.15482 20.4031 7.09387 20.2572C7.03292 20.1112 7.00155 19.9547 7.00157 19.7966L7 11.4036C7 11.0716 7.13616 10.7693 7.35514 10.551C7.57443 10.3328 7.87749 10.1968 8.21067 10.1968H9.45992C9.47812 10.1759 9.49851 10.1562 9.52141 10.1383L13.3187 7.19947C13.2783 7.05252 13.2563 6.89745 13.2563 6.73769C13.2563 6.25778 13.4518 5.8232 13.7671 5.50899C14.0827 5.19447 14.5184 5 15 5ZM9.92957 13.6828C9.73914 13.6828 9.58478 13.5287 9.58478 13.3392C9.58478 13.1494 9.73914 12.9956 9.92957 12.9956H20.0704C20.2609 12.9956 20.4152 13.1494 20.4152 13.3392C20.4152 13.5287 20.2609 13.6828 20.0704 13.6828H9.92957ZM9.92957 15.9423C9.73914 15.9423 9.58478 15.7885 9.58478 15.5987C9.58478 15.4089 9.73914 15.2551 9.92957 15.2551H20.0704C20.2609 15.2551 20.4152 15.4089 20.4152 15.5987C20.4152 15.7885 20.2609 15.9423 20.0704 15.9423H9.92957ZM11.4511 18.2018C11.2607 18.2018 11.1064 18.048 11.1064 17.8582C11.1064 17.6688 11.2607 17.5146 11.4511 17.5146H18.5492C18.7396 17.5146 18.894 17.6688 18.894 17.8582C18.894 18.048 18.7396 18.2018 18.5492 18.2018H11.4511ZM19.2002 10.1968L16.2693 7.92856L16.2326 7.96608C15.9173 8.2806 15.4813 8.47507 15 8.47507C14.5184 8.47507 14.0827 8.2806 13.7671 7.96608L13.7307 7.92856L10.8002 10.1968H19.2002ZM21.7893 10.9606H8.21067C8.08863 10.9606 7.97725 11.0106 7.89663 11.0907C7.81334 11.1737 7.76651 11.2862 7.76643 11.4036V19.7966C7.76486 19.9161 7.81537 20.0264 7.89663 20.1074C7.976 20.1871 8.08675 20.2365 8.20878 20.2365H21.7893C21.9111 20.2365 22.0227 20.1865 22.1031 20.1065C22.1837 20.0261 22.2336 19.9151 22.2336 19.7938V11.4036C22.2336 11.2808 22.184 11.1701 22.1043 11.0907L22.1031 11.0894C22.0618 11.0484 22.0129 11.0159 21.9591 10.9938C21.9052 10.9717 21.8476 10.9604 21.7893 10.9606ZM15 6.00266C15.2036 6.00266 15.3881 6.08488 15.5214 6.21776C15.59 6.286 15.6443 6.36705 15.6814 6.45628C15.7184 6.5455 15.7374 6.64113 15.7373 6.73769C15.7373 6.9406 15.6547 7.12412 15.5214 7.25731C15.453 7.32562 15.3717 7.37978 15.2822 7.4167C15.1928 7.45361 15.0968 7.47254 15 7.47241C14.7964 7.47241 14.6119 7.39018 14.4786 7.25731C14.3449 7.12412 14.2624 6.9406 14.2624 6.73769C14.2624 6.53478 14.3449 6.35063 14.4786 6.21776C14.547 6.14945 14.6283 6.09528 14.7178 6.05837C14.8072 6.02146 14.9032 6.00252 15 6.00266Z" fill="black"/>
</g>
<defs>
<filter id="filter0_d_11_119" x="0" y="0" width="30" height="30" filterUnits="userSpaceOnUse" color-interpolation-filters="sRGB">
<feFlood flood-opacity="0" result="BackgroundImageFix"/>
<feColorMatrix in="SourceAlpha" type="matrix" values="0 0 0 0 0 0 0 0 0 0 0 0 0 0 0 0 0 0 127 0" result="hardAlpha"/>
<feOffset dy="1"/>
<feGaussianBlur stdDeviation="0.5"/>
<feComposite in2="hardAlpha" operator="out"/>
<feColorMatrix type="matrix" values="0 0 0 0 0 0 0 0 0 0 0 0 0 0 0 0 0 0 0.25 0"/>
<feBlend mode="normal" in2="BackgroundImageFix" result="effect1_dropShadow_11_119"/>
<feBlend mode="normal" in="SourceGraphic" in2="effect1_dropShadow_11_119" result="shape"/>
</filter>
<filter id="filter1_d_11_119" x="1" y="1" width="28" height="28" filterUnits="userSpaceOnUse" color-interpolation-filters="sRGB">
<feFlood flood-opacity="0" result="BackgroundImageFix"/>
<feColorMatrix in="SourceAlpha" type="matrix" values="0 0 0 0 0 0 0 0 0 0 0 0 0 0 0 0 0 0 127 0" result="hardAlpha"/>
<feOffset dy="1"/>
<feGaussianBlur stdDeviation="0.5"/>
<feComposite in2="hardAlpha" operator="out"/>
<feColorMatrix type="matrix" values="0 0 0 0 0 0 0 0 0 0 0 0 0 0 0 0 0 0 0.25 0"/>
<feBlend mode="normal" in2="BackgroundImageFix" result="effect1_dropShadow_11_119"/>
<feBlend mode="normal" in="SourceGraphic" in2="effect1_dropShadow_11_119" result="shape"/>
</filter>
<clipPath id="clip0_11_119">
<rect width="16" height="16" fill="white" transform="translate(7 5)"/>
</clipPath>
</defs>
</svg>
