<svg width="28" height="28" viewBox="0 0 28 28" fill="none" xmlns="http://www.w3.org/2000/svg">
<g filter="url(#filter0_d_151_61)">
<circle cx="14" cy="13" r="13" fill="#05389A"/>
</g>
<path d="M10.5408 12.6415C12.6891 12.1223 15.0196 12.0442 17.6284 12.6415C17.8416 12.6903 18.063 12.8026 18.1736 12.9735C18.2192 13.0223 18.2615 13.076 18.2957 13.1346L19.9036 15.3822L20.8883 12.6854C20.9827 12.4169 21.1047 12.2411 21.2723 12.1598V12.1565L22.3709 11.3346C22.4881 11.2468 22.6557 11.2712 22.7436 11.3883C22.8315 11.5055 22.807 11.6732 22.6899 11.761L22.0486 12.2411C22.1056 12.2639 22.1642 12.2883 22.2228 12.316L22.9242 11.8571C23.0186 11.7952 23.1472 11.8213 23.209 11.9173C23.2709 12.0117 23.2448 12.1402 23.1504 12.2021L22.7908 12.4364H23.707C23.8682 12.4364 24 12.5683 24 12.7294C24 12.8905 23.8682 13.0223 23.707 13.0223H22.9128C22.8966 13.1265 22.8152 13.2616 22.7826 13.3543L21.0754 18.2742H21.0738C20.9973 18.489 20.8476 18.681 20.636 18.8047C20.1592 19.0847 19.5456 18.9252 19.2657 18.4467L17.7293 16.0836L16.9726 20.2434C16.8049 21.1662 16.2516 21.9539 15.3711 21.9539H12.7981C11.9176 21.9539 11.3643 21.1662 11.195 20.2434L10.4008 15.8802L8.73431 18.4467C8.45439 18.9235 7.84083 19.0847 7.36398 18.8047C7.15078 18.6794 7.00268 18.489 6.92619 18.2742H6.92456L5.21735 13.3543C5.1848 13.2616 5.10505 13.1265 5.08715 13.0223H4.29294C4.13183 13.0223 4 12.8905 4 12.7294C4 12.5683 4.13183 12.4364 4.29294 12.4364H5.20921L4.84954 12.2021C4.75515 12.1402 4.72911 12.0117 4.79095 11.9173C4.85279 11.8229 4.98136 11.7968 5.07576 11.8571L5.7772 12.316C5.83579 12.29 5.89275 12.2639 5.95134 12.2411L5.31011 11.761C5.19294 11.6732 5.16852 11.5055 5.25641 11.39C5.34429 11.2728 5.51192 11.2484 5.6291 11.3363L6.72764 12.1581V12.1614C6.89527 12.2428 7.01733 12.4185 7.11172 12.6871L8.09634 15.3838L9.70428 13.1363C9.87191 12.8514 10.1925 12.6789 10.5262 12.6464L10.5408 12.6415ZM13.9422 5.01355C15.7601 5.01355 17.233 6.48641 17.233 8.30429C17.233 10.1222 15.7601 11.595 13.9422 11.595C12.1243 11.595 10.6515 10.1222 10.6515 8.30429C10.6515 6.48804 12.1243 5.01355 13.9422 5.01355Z" fill="white"/>
<path d="M19.1638 5.00707C18.8563 4.97452 18.5828 5.05427 18.3403 5.24794C18.0995 5.44161 17.966 5.69224 17.9335 6.00146L17.678 8.42476C17.6454 8.73398 17.7252 9.00902 17.9188 9.24826C18.1125 9.4875 18.3631 9.62258 18.6724 9.65513L19.587 9.75115C19.4975 9.99038 19.3933 10.215 19.2729 10.4233C19.1541 10.6349 18.9669 10.8285 18.7196 11.0059C19.1655 10.9392 19.5691 10.8106 19.9353 10.6235C20.2982 10.4379 20.6221 10.1922 20.8987 9.89111L21.9143 9.99852C22.2219 10.0311 22.4953 9.94807 22.7378 9.75766C22.9786 9.56399 23.1121 9.31336 23.1446 9.00414L23.4002 6.58083C23.4327 6.27324 23.353 5.99983 23.1593 5.75733C22.9656 5.51647 22.715 5.38302 22.4058 5.35047L19.1638 5.00707ZM20.1436 8.20993L20.6725 8.29456L20.5976 8.76164L20.0687 8.67702L20.1436 8.20993ZM20.7132 8.03905L20.1859 7.95442C20.2364 7.30506 20.1843 6.93237 20.2884 6.29114C20.3259 6.05516 20.5488 5.89404 20.7848 5.9331C21.0208 5.97216 21.1819 6.1935 21.1445 6.42948C21.0387 7.06908 20.8694 7.40759 20.7132 8.03905Z" fill="#FF0000"/>
<defs>
<filter id="filter0_d_151_61" x="0" y="0" width="28" height="28" filterUnits="userSpaceOnUse" color-interpolation-filters="sRGB">
<feFlood flood-opacity="0" result="BackgroundImageFix"/>
<feColorMatrix in="SourceAlpha" type="matrix" values="0 0 0 0 0 0 0 0 0 0 0 0 0 0 0 0 0 0 127 0" result="hardAlpha"/>
<feOffset dy="1"/>
<feGaussianBlur stdDeviation="0.5"/>
<feComposite in2="hardAlpha" operator="out"/>
<feColorMatrix type="matrix" values="0 0 0 0 0 0 0 0 0 0 0 0 0 0 0 0 0 0 0.25 0"/>
<feBlend mode="normal" in2="BackgroundImageFix" result="effect1_dropShadow_151_61"/>
<feBlend mode="normal" in="SourceGraphic" in2="effect1_dropShadow_151_61" result="shape"/>
</filter>
</defs>
</svg>
