<svg width="12" height="15" viewBox="0 0 12 15" fill="none" xmlns="http://www.w3.org/2000/svg">
<path d="M8.15494 12.9147L10.6258 10.4131H8.15494V12.9147ZM3.11558 7.5558H9.82181V8.16821H3.11558V7.5558ZM11.9999 10.0935C11.9999 10.2743 11.8737 10.4305 11.7004 10.4757L8.06107 14.1619C7.98538 14.2523 7.87 14.3077 7.74369 14.3077H1.67695C1.47138 14.3077 1.28744 14.2278 1.154 14.0993C1.02044 13.9708 0.9375 13.7937 0.9375 13.5955V1.40456C0.9375 1.20656 1.02044 1.02939 1.15388 0.900853C1.28744 0.772211 1.47495 0.692322 1.67695 0.692322H11.2606C11.4626 0.692322 11.6502 0.772211 11.7836 0.900743C11.9171 1.02927 12 1.20656 12 1.40445L11.9999 10.0935ZM11.1739 9.61763V1.48789H1.76357V13.5156H7.3291V10.0171C7.3291 9.79824 7.51304 9.61763 7.7438 9.61763H11.1739Z" fill="#0057FF"/>
</svg>
