<svg width="44" height="36" viewBox="0 0 44 36" fill="none" xmlns="http://www.w3.org/2000/svg">
<path fill-rule="evenodd" clip-rule="evenodd" d="M40.0413 24.7789H43.6421C43.737 24.7789 43.828 24.8159 43.8952 24.8819C43.9623 24.948 44 25.0375 44 25.1308V33.7188C44 33.8121 43.9623 33.9016 43.8952 33.9676C43.828 34.0336 43.737 34.0707 43.6421 34.0707H40.0413C39.9463 34.0707 39.8553 34.0336 39.7882 33.9676C39.721 33.9016 39.6833 33.8121 39.6833 33.7188V25.1238C39.6833 25.0304 39.721 24.9409 39.7882 24.8749C39.8553 24.8089 39.9463 24.7718 40.0413 24.7718V24.7789ZM26.583 14.6212C26.9731 14.5159 27.3862 14.5268 27.7699 14.6525C28.1537 14.7783 28.4909 15.0131 28.7388 15.3274C28.9867 15.6417 29.1342 16.0213 29.1627 16.4181C29.1911 16.8148 29.0991 17.211 28.8984 17.5563C28.6977 17.9017 28.3973 18.1807 28.0353 18.3581C27.6732 18.5354 27.2658 18.6032 26.8645 18.5527C26.4633 18.5022 26.0863 18.3358 25.7814 18.0745C25.4764 17.8132 25.2571 17.4688 25.1513 17.0849C25.0098 16.5715 25.081 16.0239 25.3494 15.5621C25.6178 15.1003 26.0614 14.7619 26.583 14.6212ZM38.9997 18.7286L32.0844 24.9232L31.2397 24.0327L36.1649 19.605L36.2329 19.5487C36.4599 19.3398 36.5934 19.051 36.6041 18.7455C36.6148 18.44 36.5019 18.1428 36.2901 17.9191L28.2689 8.3034L29.4393 7.24751L38.9997 18.7286ZM0.257072 5.28003L3.49994 4.43531C3.58488 4.41383 3.67502 4.42617 3.75075 4.46967C3.82649 4.51317 3.88171 4.5843 3.9044 4.66761L6.01263 12.4108C6.024 12.452 6.02699 12.4949 6.02144 12.5372C6.0159 12.5795 6.00191 12.6202 5.9803 12.6572C5.95868 12.6942 5.92986 12.7265 5.89548 12.7525C5.8611 12.7785 5.82185 12.7975 5.77997 12.8085L2.5371 13.6568C2.49527 13.668 2.4516 13.6709 2.4086 13.6655C2.36561 13.66 2.32413 13.6462 2.28655 13.625C2.24897 13.6037 2.21603 13.5754 2.18962 13.5416C2.16321 13.5078 2.14384 13.4692 2.13264 13.428L0.0136783 5.6883C0.000805823 5.64577 -0.00303731 5.60108 0.00238749 5.55703C0.00781229 5.51297 0.0223892 5.47048 0.0452133 5.43219C0.0680374 5.39391 0.0986213 5.36064 0.135066 5.33447C0.171511 5.30829 0.213039 5.28976 0.257072 5.28003ZM5.02473 5.51936C4.98 5.38923 4.98 5.24825 5.02473 5.11812C5.16075 4.78376 5.68691 4.73448 6.01263 4.64649C6.34919 4.56428 6.67564 4.44626 6.9862 4.29452C7.43646 4.04376 7.86931 3.76392 8.28192 3.45685C9.35572 2.72476 10.3543 2.11234 11.3995 1.40842C13.7261 -0.182463 12.8992 -0.178944 15.8701 0.229335C17.1474 0.405598 18.4122 0.660689 19.657 0.993098C19.8328 1.03505 20.0024 1.09892 20.1617 1.18316C20.3221 1.27998 20.4679 1.39846 20.5948 1.53512C22.0265 2.72124 23.2829 3.96368 24.5321 5.22019C24.9544 5.66367 25.2014 6.12474 25.094 6.48374C24.6537 7.962 22.746 6.52598 20.8955 5.72702C20.1187 5.37506 19.1058 5.17092 18.2324 4.85767C17.1586 4.71336 16.611 4.45643 15.5229 4.5057C13.9015 4.78728 14.3775 7.05745 16.4857 6.58933C17.9175 6.27256 21.1711 6.76532 22.3021 7.7121C23.3759 8.59201 23.2292 9.77109 21.665 10.1407L20.3013 10.2427C18.1286 10.4081 18.1537 10.3131 16.1206 11.274C15.0218 11.7914 13.8692 12.3299 12.6165 12.4249C11.8577 12.4847 11.3959 12.2982 10.6156 11.985C10.2254 11.795 9.81483 11.6487 9.39151 11.5485C9.04924 11.4523 8.69518 11.4025 8.33919 11.4007C7.80945 11.4007 7.15801 11.7527 6.75355 11.4007C6.64063 11.297 6.55996 11.164 6.52089 11.017L5.02473 5.51936ZM25.996 7.82121L35.585 18.7849L28.2116 25.3913L17.8316 13.5406L20.0973 11.5133L22.0301 11.3655L22.1983 11.3373C22.6892 11.2322 23.1509 11.0232 23.5513 10.7249L21.2462 12.7909C21.5096 13.0752 21.6474 13.4507 21.6293 13.8348C21.6112 14.219 21.4386 14.5803 21.1496 14.8394L27.2165 22.0159C27.5054 21.758 27.8865 21.6232 28.2763 21.641C28.6661 21.6588 29.0328 21.8278 29.2961 22.111L32.2097 19.4959C32.0794 19.3554 31.9785 19.1911 31.9128 19.0123C31.8471 18.8334 31.818 18.6436 31.8269 18.4537C31.8359 18.2638 31.8829 18.0775 31.9651 17.9054C32.0474 17.7333 32.1633 17.5789 32.3063 17.451L26.2573 10.2709C26.1144 10.3996 25.947 10.4992 25.7648 10.5641C25.5826 10.629 25.3892 10.6579 25.1956 10.649C25.0021 10.6402 24.8122 10.5939 24.6369 10.5127C24.4616 10.4315 24.3043 10.317 24.1741 10.1759L23.8162 10.4997C23.8491 10.4673 23.8801 10.4332 23.9093 10.3976C24.1282 10.1391 24.2804 9.83237 24.3531 9.5036C24.4321 9.1797 24.4321 8.842 24.3531 8.5181C24.3248 8.39831 24.2877 8.28068 24.2421 8.16613C24.958 8.30692 25.5486 8.23301 25.9924 7.81417L25.996 7.82121ZM38.5451 33.314V25.5532H34.9801C33.4768 25.8172 31.9735 26.6091 30.4666 27.5523H27.7105C26.4613 27.6263 25.8063 28.8687 27.0197 29.6852C27.9861 30.3892 29.2639 30.3434 30.5704 30.2308C31.4724 30.185 31.5117 31.3782 30.5704 31.3817C30.2447 31.4064 29.8903 31.3289 29.5789 31.3289C27.9324 31.3254 26.6045 31.0227 25.7848 29.7556L25.3732 28.8053L21.2641 26.8062C19.2132 26.141 17.7564 28.2527 19.2669 29.724C22.1276 31.775 25.1873 33.5434 28.4013 35.0034C30.667 36.355 32.9291 36.3092 35.202 35.0034L38.5415 33.307L38.5451 33.314Z" fill="white"/>
</svg>
