<svg width="96" height="107" viewBox="0 0 96 107" fill="none" xmlns="http://www.w3.org/2000/svg">
<path d="M21.45 97.9609L22.9759 103.84C23.3739 105.374 24.8565 106.408 26.4972 106.299C31.4978 105.961 41.8936 104.733 47.8592 100.337L46.1637 91.8622C37.9614 91.3993 30.2909 91.8554 23.6489 94.0922C21.9859 94.651 21.0256 96.3181 21.45 97.9609Z" fill="#102048"/>
<path d="M31.0097 102.643C30.9665 102.642 30.9247 102.628 30.8903 102.602C30.8559 102.576 30.8307 102.539 30.8185 102.498L28.7703 95.1632C28.7633 95.1382 28.7612 95.112 28.7644 95.0861C28.7675 95.0603 28.7757 95.0353 28.7884 95.0126C28.8012 94.9899 28.8183 94.97 28.8388 94.9539C28.8593 94.9378 28.8827 94.926 28.9078 94.9189C28.9328 94.9119 28.9591 94.9099 28.9849 94.913C29.0107 94.9162 29.0357 94.9243 29.0584 94.9371C29.0811 94.9499 29.101 94.967 29.1171 94.9875C29.1332 95.0079 29.1451 95.0314 29.1521 95.0565L31.201 102.392C31.215 102.442 31.2087 102.496 31.1834 102.541C31.1581 102.587 31.1159 102.621 31.0658 102.636C31.0475 102.641 31.0287 102.643 31.0097 102.643Z" fill="white"/>
<path d="M35.4372 101.652C35.3938 101.652 35.3516 101.638 35.317 101.612C35.2825 101.585 35.2575 101.548 35.246 101.507L33.1978 94.1719C33.1836 94.1213 33.1901 94.0671 33.2159 94.0213C33.2417 93.9755 33.2846 93.9418 33.3353 93.9276C33.3859 93.9135 33.4401 93.92 33.4859 93.9458C33.5317 93.9716 33.5654 94.0145 33.5796 94.0652L35.6278 101.4C35.6422 101.451 35.636 101.505 35.6107 101.55C35.5853 101.596 35.5429 101.63 35.4926 101.644C35.4746 101.65 35.4559 101.652 35.4372 101.652Z" fill="white"/>
<path d="M40.5791 66.1666L21.5154 71.8247L35.6731 91.2222L55.9978 92.8393L84.0322 80.9845L73.3789 64.9543L40.5791 66.1666Z" fill="#FBC343"/>
<path d="M64.0816 68.8608C105.946 56.4682 112.674 93.4678 47.3546 100.203C45.0469 97.6068 42.354 93.1022 41.2803 89.3369L75.7749 73.3965L64.0816 68.8608Z" fill="#FBC343"/>
<path d="M65.8592 95.3781C63.8995 94.751 62.0249 93.5124 62.0249 93.5124L55.2971 95.6207L56.8405 102.942L63.8299 104.361C65.9578 100.468 66.0815 97.2703 65.8592 95.3781Z" fill="#F9B384"/>
<path d="M41.4293 89.5937L41.1306 89.0795C48.3267 84.8972 66.7593 74.8501 82.4638 71.8869L82.5747 72.4714C66.9607 75.4157 48.5964 85.427 41.4293 89.5937Z" fill="#E49B31"/>
<path d="M40.5793 66.1666C1.61122 58.7577 -8.48119 96.2066 56.8407 102.942C59.1477 100.346 60.956 97.2784 62.0264 93.5124C51.9914 86.7988 40.7732 80.4163 28.4779 74.3392L40.5793 66.1666Z" fill="#FBC343"/>
<path d="M61.8657 93.7638C60.0121 92.5839 58.0815 91.3365 56.036 90.0161C45.7706 83.3896 34.1354 75.8766 24.2505 71.593L24.487 71.0469C34.4172 75.3481 46.074 82.876 56.3583 89.5167C58.4025 90.8364 60.3331 92.0845 62.1853 93.2617L61.8657 93.7638Z" fill="#E49B31"/>
<path d="M11.9886 84.735L11.4683 84.4478C12.9306 81.7996 15.2734 80.0135 18.4285 79.1391L18.5873 79.7121C15.5518 80.5514 13.3894 82.1969 11.9886 84.735Z" fill="#E49B31"/>
<path d="M93.3197 82.4807C91.9182 79.9426 89.7585 78.2998 86.7183 77.4571L86.8771 76.8841C90.0349 77.7626 92.3777 79.5452 93.8373 82.1928L93.3197 82.4807Z" fill="#E49B31"/>
<path d="M53.1913 102.613L52.7561 102.208C55.8734 98.8697 57.7878 95.345 58.6095 91.4337L59.1913 91.5554C58.3459 95.5761 56.3829 99.1934 53.1913 102.613Z" fill="#E49B31"/>
<path d="M85.2937 93.1982C80.3013 90.114 70.6224 95.4437 68.1924 95.7127C67.4842 95.7917 66.6652 95.6363 65.859 95.3782C66.0813 97.2703 65.9577 100.468 63.8284 104.362L65.0157 104.604C65.0157 104.604 73.2227 107.612 81.9291 105.861C89.9659 104.244 89.2185 95.6208 85.2937 93.1982Z" fill="#102048"/>
<path d="M78.4883 103.287C78.4682 103.287 78.4481 103.284 78.4289 103.278C78.3787 103.263 78.3369 103.228 78.3126 103.181C78.2883 103.134 78.2834 103.08 78.2991 103.03C78.8924 101.151 79.1512 97.4561 77.4335 94.9747C77.4035 94.9315 77.392 94.8782 77.4014 94.8265C77.4108 94.7748 77.4403 94.729 77.4835 94.699C77.5267 94.6691 77.58 94.6576 77.6317 94.6669C77.6834 94.6763 77.7293 94.7058 77.7592 94.749C79.558 97.348 79.2938 101.196 78.6775 103.149C78.6648 103.189 78.6396 103.224 78.6056 103.249C78.5715 103.274 78.5305 103.287 78.4883 103.287Z" fill="white"/>
<path d="M74.5732 104.031C74.5531 104.031 74.533 104.028 74.5138 104.022C74.4636 104.006 74.4218 103.971 74.3975 103.924C74.3732 103.878 74.3683 103.823 74.384 103.773C74.9773 101.894 75.2362 98.2001 73.5184 95.7188C73.5035 95.6974 73.493 95.6733 73.4875 95.6478C73.4819 95.6224 73.4814 95.5961 73.486 95.5705C73.4907 95.5448 73.5003 95.5204 73.5143 95.4984C73.5284 95.4765 73.5467 95.4576 73.5681 95.4427C73.5894 95.4279 73.6135 95.4174 73.639 95.4118C73.6644 95.4063 73.6907 95.4058 73.7164 95.4104C73.742 95.415 73.7665 95.4246 73.7884 95.4387C73.8103 95.4528 73.8292 95.471 73.8441 95.4924C75.6436 98.0913 75.3787 101.94 74.7624 103.892C74.7497 103.932 74.7245 103.967 74.6905 103.992C74.6565 104.017 74.6154 104.031 74.5732 104.031Z" fill="white"/>
<path d="M33.6852 17.8812C33.6852 17.8812 43.4992 9.53634 43.1356 7.94764C42.8761 6.8144 40.0947 8.47608 40.0947 8.47608C40.0947 8.47608 43.9945 3.85324 43.7986 3.29169C43.4445 2.28752 40.7475 4.15868 40.7475 4.15868C40.7475 4.15868 42.5721 1.5354 41.699 1.10833C40.8259 0.681249 38.9264 2.29901 38.9264 2.29901C38.9264 2.29901 40.0359 0.842754 39.5143 0.460952C38.9926 0.0791508 36.7437 1.64961 36.7437 1.64961C36.7437 1.64961 37.5505 -0.186421 35.8355 0.509607C34.1204 1.20563 22.0967 12.2407 22.0967 12.2407L33.6852 17.8812Z" fill="#F9B384"/>
<path d="M37.7006 7.98345C37.6506 7.98373 37.6024 7.96515 37.5655 7.93142C35.8808 6.39205 35.1382 6.01835 33.2798 5.44667C33.2544 5.43954 33.2306 5.4274 33.21 5.41095C33.1893 5.3945 33.1721 5.37409 33.1595 5.3509C33.1468 5.32772 33.1389 5.30224 33.1363 5.27596C33.1336 5.24968 33.1362 5.22313 33.144 5.19788C33.1517 5.17263 33.1645 5.14918 33.1814 5.12893C33.1984 5.10867 33.2192 5.09201 33.2427 5.07993C33.2662 5.06785 33.2919 5.06059 33.3182 5.05859C33.3445 5.05658 33.371 5.05986 33.3961 5.06824C35.322 5.6602 36.091 6.04674 37.8331 7.63611C37.8628 7.6631 37.8837 7.69849 37.8928 7.73759C37.902 7.77669 37.899 7.81766 37.8844 7.85505C37.8697 7.89244 37.844 7.92448 37.8107 7.94693C37.7774 7.96938 37.7381 7.98118 37.6979 7.98075L37.7006 7.98345Z" fill="#E28B6D"/>
<path d="M34.7432 12.5096H34.7155C34.6898 12.5061 34.6649 12.4975 34.6425 12.4843C34.62 12.4711 34.6004 12.4536 34.5847 12.4328C34.569 12.4121 34.5575 12.3884 34.551 12.3632C34.5445 12.338 34.543 12.3117 34.5466 12.286C34.7399 10.9061 35.1744 10.0438 35.8751 9.65052C36.4739 9.31264 37.2537 9.34846 38.1916 9.75323C38.2399 9.77402 38.278 9.81315 38.2974 9.862C38.3169 9.91086 38.3161 9.96544 38.2954 10.0137C38.2746 10.062 38.2354 10.1001 38.1866 10.1196C38.1377 10.139 38.0832 10.1383 38.0349 10.1175C37.2158 9.76405 36.5549 9.72283 36.0691 9.99651C35.492 10.3209 35.1115 11.1102 34.9392 12.3414C34.9321 12.3882 34.9084 12.431 34.8724 12.4619C34.8365 12.4927 34.7906 12.5097 34.7432 12.5096Z" fill="#E28B6D"/>
<path d="M34.2804 4.16676C34.2409 4.1666 34.2023 4.15458 34.1696 4.13226C34.1369 4.10994 34.1117 4.07835 34.0971 4.04154C34.0826 4.00474 34.0794 3.96443 34.088 3.9258C34.0966 3.88717 34.1165 3.852 34.1453 3.82483L36.6077 1.50361C36.6469 1.47366 36.6957 1.45933 36.7448 1.46338C36.7939 1.46744 36.8398 1.4896 36.8735 1.52556C36.9072 1.56152 36.9263 1.60871 36.9271 1.65798C36.928 1.70724 36.9105 1.75506 36.878 1.79215L34.4169 4.1127C34.3801 4.14766 34.3312 4.16704 34.2804 4.16676Z" fill="#E28B6D"/>
<path d="M36.5605 4.96011C36.5213 4.96041 36.4828 4.94906 36.45 4.92751C36.4171 4.90595 36.3914 4.87515 36.3761 4.83899C36.3608 4.80284 36.3565 4.76295 36.3638 4.72437C36.3712 4.68579 36.3898 4.65025 36.4173 4.62223L38.7824 2.15775C38.8191 2.11985 38.8693 2.09805 38.922 2.09717C38.9747 2.09628 39.0256 2.11637 39.0635 2.15302C39.1014 2.18967 39.1232 2.23988 39.1241 2.2926C39.125 2.34532 39.1049 2.39623 39.0683 2.43414L36.7031 4.89861C36.6847 4.91791 36.6626 4.9333 36.6381 4.94387C36.6136 4.95443 36.5872 4.95996 36.5605 4.96011Z" fill="#E28B6D"/>
<path d="M38.89 6.34743C38.8514 6.34755 38.8135 6.33636 38.7812 6.31524C38.7488 6.29412 38.7234 6.264 38.7079 6.22859C38.6925 6.19317 38.6877 6.15401 38.6943 6.11593C38.7008 6.07785 38.7183 6.04252 38.7447 6.01429L40.601 4.02351C40.6368 3.98507 40.6865 3.96244 40.739 3.9606C40.7916 3.95876 40.8427 3.97787 40.8811 4.01371C40.9195 4.04956 40.9422 4.0992 40.944 4.15173C40.9459 4.20426 40.9267 4.25537 40.8909 4.29381L39.0353 6.28594C39.0166 6.3056 38.994 6.3212 38.969 6.33178C38.944 6.34236 38.9171 6.34769 38.89 6.34743Z" fill="#E28B6D"/>
<path d="M70.7572 73.6986L34.8746 75.0866L30.9106 42.3767C30.9106 42.3767 42.9202 30.9834 47.5444 26.7877L55.3466 26.3876C79.5528 37.3903 75.5889 51.1324 70.7572 73.6986Z" fill="#3A6BEA"/>
<path d="M55.3464 26.3876C55.3464 26.3876 83.0402 28.7528 91.7696 47.7293C100.313 66.295 65.2057 72.9059 65.2057 72.9059L55.3464 26.3876Z" fill="#3A6BEA"/>
<path d="M23.6907 30.4529L35.1347 16.527L24.4334 10.0397C19.9694 13.1442 11.3366 20.1761 4.02087 28.1358C2.4065 29.8927 1.14486 31.9457 0.506949 34.2054C-0.024446 36.057 -0.139826 38.0033 0.169072 39.9047C0.967814 44.7675 4.79191 48.5206 9.89724 49.1173C14.2572 49.6275 30.9132 48.3239 44.3911 44.3593L48.3558 29.0589C46.3184 27.9006 31.1768 27.6999 23.6907 30.4529Z" fill="#3A6BEA"/>
<g opacity="0.8">
<path d="M78.4576 33.9169L78.6366 33.8763C78.5116 33.802 78.3859 33.7297 78.2602 33.6574C76.233 34.1243 74.1381 34.6034 72.073 34.8508C70.8323 35.0008 66.6879 35.2745 65.4763 32.5127C64.8735 31.1388 65.3297 29.611 66.0115 28.5385L65.7142 28.4534C65.0168 29.5893 64.5688 31.1834 65.204 32.6323C66.4974 35.5819 70.8127 35.3022 72.1088 35.1461C74.2321 34.89 76.3803 34.3973 78.4576 33.9169Z" fill="white"/>
<path d="M91.3818 55.316C90.0587 54.8052 88.6916 54.2767 87.2549 54.4119C84.7344 54.6504 82.5774 57.1426 82.447 59.9679C82.3578 61.8945 83.0936 63.913 84.4965 65.6889C84.581 65.6362 84.6655 65.5835 84.7492 65.5294C83.3775 63.8042 82.6544 61.8452 82.7443 59.9821C82.8686 57.2987 84.9067 54.9329 87.2827 54.7078C88.649 54.5815 89.9242 55.0721 91.2743 55.5938C91.7562 55.7796 92.2461 55.9675 92.7441 56.1269C92.7698 56.031 92.7948 55.935 92.8178 55.8384C92.3326 55.6836 91.8535 55.4985 91.3818 55.316Z" fill="white"/>
<path d="M21.4826 45.8595C19.7534 44.4296 17.0673 44.0471 14.1169 44.8107C11.4815 45.4919 9.22512 46.838 7.67358 48.6254C7.77562 48.6585 7.87631 48.6929 7.97902 48.7254C9.48866 47.036 11.6626 45.752 14.1912 45.0986C17.051 44.3553 19.6419 44.7202 21.2968 46.0886C22.0834 46.7387 22.6395 47.5833 23.0436 48.4949L23.3511 48.4591C22.9247 47.4786 22.3348 46.5609 21.4826 45.8595Z" fill="white"/>
<path d="M5.85229 26.1923C9.09186 25.3875 12.253 24.257 15.1689 22.577C16.2711 21.9425 17.5151 21.1336 18.3903 19.9457C19.3208 18.6813 19.6296 17.1751 19.2174 15.9202C19.0554 15.4369 18.7786 15.0003 18.4105 14.6477L18.1821 14.8349C18.5262 15.1595 18.7848 15.5641 18.9349 16.0128C19.3174 17.1778 19.0241 18.5806 18.1504 19.7686C17.3084 20.9127 16.0961 21.6999 15.0209 22.3196C12.2706 23.9036 9.29594 24.9996 6.2395 25.7909L5.85229 26.1923Z" fill="white"/>
</g>
<path d="M57.8811 19.1152L57.8757 19.6226L57.7953 27.5101L57.7865 28.3642C57.7707 29.6567 57.2461 30.8909 56.3263 31.7991C55.4065 32.7073 54.1657 33.2163 52.8731 33.2157C51.5805 33.2151 50.3403 32.7049 49.4214 31.7958C48.5024 30.8867 47.979 29.652 47.9644 28.3595L47.8691 18.6124L57.8811 19.1152Z" fill="#F9B384"/>
<path d="M57.8757 19.6226L57.7953 27.51C53.4124 25.7254 51.6074 20.9802 51.6074 20.9802L57.8757 19.6226Z" fill="#102048"/>
<path d="M59.6112 5.86023C61.1823 7.74491 65.7694 18.4293 61.1195 22.0709C55.8871 26.1721 47.9247 19.4355 47.9247 19.4355L46.855 6.99077L53.7666 5.16623L59.6112 5.86023Z" fill="#F9B384"/>
<path d="M43.3336 5.17499C43.3336 5.17499 28.0035 13.1705 40.5036 36.2219C42.1092 39.1824 45.665 40.4744 48.7072 39.0303C51.9705 37.4774 53.2064 33.4905 51.4346 30.3428C49.3898 26.7099 47.4166 22.031 48.2585 18.5522L43.3336 5.17499Z" fill="#102048"/>
<path d="M47.7138 11.8919C49.3334 10.2723 49.3334 7.64654 47.7138 6.027C46.0943 4.40745 43.4685 4.40745 41.849 6.02699C40.2294 7.64654 40.2294 10.2723 41.849 11.8919C43.4685 13.5114 46.0943 13.5114 47.7138 11.8919Z" fill="#FBC343"/>
<path d="M49.8803 13.9423C49.4323 11.3555 49.1593 9.58093 51.7725 8.24766C51.7725 8.24766 60.9877 9.92354 62.7474 6.4461C64.5071 2.96866 61.8304 -2.51779 56.2169 1.29414C41.849 -1.51227 39.9224 11.9339 44.279 16.4162L48.5788 15.756C48.7842 15.724 48.9811 15.6515 49.1581 15.5427C49.3351 15.4338 49.4887 15.2908 49.6098 15.122C49.731 14.9531 49.8173 14.7619 49.8637 14.5593C49.9102 14.3568 49.9158 14.147 49.8803 13.9423Z" fill="#102048"/>
<path d="M57.0184 14.5626C57.3569 14.5626 57.6313 14.2882 57.6313 13.9497C57.6313 13.6112 57.3569 13.3368 57.0184 13.3368C56.6799 13.3368 56.4055 13.6112 56.4055 13.9497C56.4055 14.2882 56.6799 14.5626 57.0184 14.5626Z" fill="#102048"/>
<path d="M61.1654 12.5205C61.5039 12.5205 61.7783 12.2461 61.7783 11.9076C61.7783 11.5691 61.5039 11.2946 61.1654 11.2946C60.8269 11.2946 60.5525 11.5691 60.5525 11.9076C60.5525 12.2461 60.8269 12.5205 61.1654 12.5205Z" fill="#102048"/>
<path d="M60.7411 15.8357C60.6965 15.8355 60.6538 15.8184 60.6215 15.7878C60.6049 15.7721 60.5916 15.7533 60.5823 15.7325C60.573 15.7116 60.568 15.6892 60.5674 15.6664C60.5668 15.6436 60.5708 15.6209 60.579 15.5996C60.5872 15.5784 60.5996 15.5589 60.6154 15.5425C60.8613 15.2836 61.1303 14.9201 61.0174 14.6565C60.8999 14.3829 60.4032 14.2646 60.1755 14.2646C59.6869 14.2646 59.4524 13.3949 59.4098 13.2206C59.3991 13.1758 59.4066 13.1285 59.4306 13.0892C59.4547 13.0499 59.4934 13.0218 59.5382 13.0111C59.583 13.0003 59.6303 13.0078 59.6696 13.0319C59.7088 13.056 59.737 13.0947 59.7477 13.1395C59.8369 13.5064 60.039 13.9179 60.1761 13.9179C60.4099 13.9179 61.1222 14.0281 61.3364 14.52C61.4871 14.8708 61.3296 15.2951 60.8674 15.7817C60.8512 15.7989 60.8316 15.8126 60.8099 15.8219C60.7881 15.8312 60.7647 15.8359 60.7411 15.8357Z" fill="#102048"/>
<path d="M60.772 18.1603C60.7375 18.1604 60.7038 18.15 60.6753 18.1306C59.5218 17.3521 58.3575 18.0049 58.3453 18.0117C58.3056 18.032 58.2596 18.0362 58.2169 18.0236C58.1741 18.0109 58.1379 17.9823 58.1157 17.9437C58.0934 17.905 58.0869 17.8593 58.0975 17.816C58.108 17.7727 58.1348 17.735 58.1723 17.7109C58.2277 17.6792 59.5387 16.9446 60.8693 17.8461C60.9002 17.8668 60.9237 17.8969 60.9362 17.9319C60.9488 17.967 60.9496 18.0052 60.9387 18.0408C60.9277 18.0764 60.9056 18.1075 60.8756 18.1296C60.8455 18.1516 60.8092 18.1633 60.772 18.163V18.1603Z" fill="#102048"/>
<path d="M56.7501 11.2967C57.0988 11.9522 56.4913 12.0839 55.7797 12.4624C55.0681 12.8408 54.3397 12.9786 54.1734 12.6651C54.0072 12.3515 54.4491 11.792 55.1607 11.4143C55.8723 11.0365 56.4804 10.7885 56.7501 11.2967Z" fill="#102048"/>
<path d="M59.3451 10.1121C59.4985 10.698 59.935 10.4412 60.5702 10.2756C61.2055 10.1101 61.719 9.78975 61.6454 9.51066C61.5717 9.23157 60.998 9.13967 60.3614 9.30793C59.7249 9.4762 59.2268 9.65933 59.3451 10.1121Z" fill="#102048"/>
<path opacity="0.4" d="M55.4139 18.1319C56.1471 17.4555 56.1932 16.3127 55.5168 15.5795C54.8404 14.8462 53.6977 14.8001 52.9644 15.4765C52.2311 16.1529 52.185 17.2957 52.8614 18.0289C53.5378 18.7622 54.6806 18.8083 55.4139 18.1319Z" fill="#EB5D60"/>
<path d="M49.5325 18.5158C50.3579 17.4463 50.0417 15.8188 48.8262 14.8807C47.6107 13.9426 45.9563 14.0492 45.1308 15.1187C44.3054 16.1883 44.6216 17.8158 45.8371 18.7538C47.0525 19.6919 48.707 19.5854 49.5325 18.5158Z" fill="#F9B384"/>
<path d="M48.4052 17.7217C48.3592 17.7216 48.3152 17.7032 48.2828 17.6706C48.2504 17.6381 48.2322 17.594 48.2322 17.5481C48.2333 17.2984 48.173 17.0523 48.0566 16.8315C47.9401 16.6106 47.7711 16.4218 47.5645 16.2817C47.207 16.0411 46.7806 15.985 46.4245 16.1303C46.3819 16.1477 46.3341 16.1474 46.2916 16.1296C46.2492 16.1117 46.2155 16.0777 46.1981 16.035C46.1808 15.9924 46.181 15.9446 46.1989 15.9021C46.2168 15.8597 46.2508 15.8261 46.2934 15.8087C46.7563 15.6201 47.3071 15.6891 47.7578 15.9938C48.0118 16.1655 48.2196 16.3971 48.3628 16.6682C48.506 16.9393 48.5802 17.2415 48.5788 17.5481C48.5788 17.5941 48.5605 17.6383 48.528 17.6709C48.4954 17.7034 48.4512 17.7217 48.4052 17.7217Z" fill="#102048"/>
<path d="M23.5453 30.3171L17.2859 37.0886L17.5772 37.3579L23.8366 30.5864L23.5453 30.3171Z" fill="#102048"/>
<path d="M67.6431 59.4179L67.5276 59.0388C72.0842 57.6501 76.5063 55.9884 80.5142 50.977L80.8237 51.2243C76.7456 56.3249 72.2619 58.0103 67.6431 59.4179Z" fill="#102048"/>
<path d="M70.414 44.064H31.6507C30.2566 44.064 29.1267 45.2871 29.1267 46.7948V74.4696C29.1267 75.9779 30.2566 77.2003 31.6507 77.2003H70.414C71.8081 77.2003 72.9379 75.9779 72.9379 74.4696V46.7948C72.9379 45.2871 71.8081 44.064 70.414 44.064Z" fill="#D3DFFF"/>
<path d="M53.0787 58.8833C53.1522 58.8865 53.2215 58.9186 53.2713 58.9727C53.3212 59.0267 53.3477 59.0984 53.3449 59.1719V62.0938C53.3475 62.1672 53.321 62.2387 53.2711 62.2926C53.2212 62.3465 53.1521 62.3785 53.0787 62.3817H48.9857C48.9123 62.3785 48.8431 62.3465 48.7933 62.2926C48.7434 62.2387 48.7168 62.1672 48.7194 62.0938V59.1719C48.7167 59.0984 48.7431 59.0267 48.793 58.9727C48.8429 58.9186 48.9122 58.8865 48.9857 58.8833H53.0787ZM53.0787 58.0907H48.9857C48.7019 58.0939 48.431 58.2095 48.2323 58.4122C48.0337 58.6149 47.9235 58.8881 47.9261 59.1719V62.0938C47.9237 62.3776 48.0339 62.6507 48.2325 62.8533C48.4311 63.056 48.7019 63.1717 48.9857 63.175H53.0787C53.3624 63.1717 53.6332 63.056 53.8318 62.8533C54.0304 62.6507 54.1406 62.3776 54.1383 62.0938V59.1719C54.1408 58.8881 54.0307 58.6149 53.832 58.4122C53.6334 58.2095 53.3625 58.0939 53.0787 58.0907Z" fill="#1F3C88"/>
</svg>
