<svg width="30" height="30" viewBox="0 0 30 30" fill="none" xmlns="http://www.w3.org/2000/svg">
<g filter="url(#filter0_d_11_121)">
<circle cx="15" cy="14" r="14" fill="#246274"/>
</g>
<g filter="url(#filter1_d_11_121)">
<circle cx="15" cy="14" r="13" fill="white"/>
</g>
<path d="M10.3333 20C9.96667 20 9.65267 19.8696 9.39133 19.6087C9.13044 19.3473 9 19.0333 9 18.6667V9.33333C9 8.96667 9.13044 8.65267 9.39133 8.39133C9.65267 8.13044 9.96667 8 10.3333 8H15V9.33333H10.3333V18.6667H15V20H10.3333ZM17.6667 17.3333L16.75 16.3667L18.45 14.6667H13V13.3333H18.45L16.75 11.6333L17.6667 10.6667L21 14L17.6667 17.3333Z" fill="black"/>
<defs>
<filter id="filter0_d_11_121" x="0" y="0" width="30" height="30" filterUnits="userSpaceOnUse" color-interpolation-filters="sRGB">
<feFlood flood-opacity="0" result="BackgroundImageFix"/>
<feColorMatrix in="SourceAlpha" type="matrix" values="0 0 0 0 0 0 0 0 0 0 0 0 0 0 0 0 0 0 127 0" result="hardAlpha"/>
<feOffset dy="1"/>
<feGaussianBlur stdDeviation="0.5"/>
<feComposite in2="hardAlpha" operator="out"/>
<feColorMatrix type="matrix" values="0 0 0 0 0 0 0 0 0 0 0 0 0 0 0 0 0 0 0.25 0"/>
<feBlend mode="normal" in2="BackgroundImageFix" result="effect1_dropShadow_11_121"/>
<feBlend mode="normal" in="SourceGraphic" in2="effect1_dropShadow_11_121" result="shape"/>
</filter>
<filter id="filter1_d_11_121" x="1" y="1" width="28" height="28" filterUnits="userSpaceOnUse" color-interpolation-filters="sRGB">
<feFlood flood-opacity="0" result="BackgroundImageFix"/>
<feColorMatrix in="SourceAlpha" type="matrix" values="0 0 0 0 0 0 0 0 0 0 0 0 0 0 0 0 0 0 127 0" result="hardAlpha"/>
<feOffset dy="1"/>
<feGaussianBlur stdDeviation="0.5"/>
<feComposite in2="hardAlpha" operator="out"/>
<feColorMatrix type="matrix" values="0 0 0 0 0 0 0 0 0 0 0 0 0 0 0 0 0 0 0.25 0"/>
<feBlend mode="normal" in2="BackgroundImageFix" result="effect1_dropShadow_11_121"/>
<feBlend mode="normal" in="SourceGraphic" in2="effect1_dropShadow_11_121" result="shape"/>
</filter>
</defs>
</svg>
