<svg width="22" height="22" viewBox="0 0 22 22" fill="none" xmlns="http://www.w3.org/2000/svg">
<path d="M10.9969 1.08258e-05C13.5419 -0.000716665 16.0085 0.881093 17.9762 2.49517C19.944 4.10925 21.2911 6.35572 21.7882 8.85177C22.2852 11.3478 21.9013 13.939 20.702 16.1837C19.5026 18.4285 17.562 20.1879 15.2108 21.1621C12.8596 22.1364 10.2433 22.2652 7.80782 21.5266C5.37229 20.7881 3.26822 19.2278 1.85416 17.1117C0.440095 14.9957 -0.196457 12.4547 0.052973 9.92194C0.302403 7.38914 1.42238 5.02119 3.22205 3.22162C4.24164 2.19863 5.45345 1.38735 6.78776 0.834459C8.12207 0.281569 9.55254 -0.00201956 10.9969 1.08258e-05ZM4.11694 17.5023C4.70578 17.1962 5.39843 17.1211 6.0857 17.0477C7.31886 16.9134 8.55202 16.781 9.01736 14.9948C9.01933 14.9842 9.02295 14.9739 9.0281 14.9644C8.46074 14.4758 7.99003 14.0534 7.89875 13.0529H7.84684C7.72721 13.0521 7.60968 13.0213 7.505 12.9634C7.33387 12.8557 7.20205 12.6956 7.12914 12.507C7.04018 12.2857 6.98993 12.0508 6.98059 11.8126C6.98059 11.7392 6.98059 11.5996 6.98059 11.4671C6.98059 11.3347 6.98059 11.2363 6.99849 11.1736C7.00195 11.1546 7.00735 11.136 7.0146 11.1181C7.1363 10.7799 7.32244 10.6689 7.56943 10.6761L7.40656 10.5687C7.31886 9.46974 7.58554 7.56541 6.3828 7.20388C8.63972 4.4154 11.2403 2.9084 13.1947 5.38009C15.5465 5.50359 16.4915 9.24244 14.614 10.8157L14.6033 10.9087C14.6744 10.8869 14.7475 10.8725 14.8216 10.8658C14.9537 10.8528 15.0867 10.8783 15.2046 10.9392C15.2685 10.9725 15.3251 11.0183 15.3709 11.074C15.4167 11.1297 15.4509 11.194 15.4713 11.2631C15.5206 11.4466 15.5163 11.6404 15.4588 11.8215C15.3729 12.0918 15.2637 12.4032 15.1617 12.6663C15.1317 12.7794 15.0696 12.8814 14.9827 12.9598C14.8676 13.0419 14.7253 13.0766 14.5854 13.0565H14.503C14.4851 13.9854 14.0305 14.4113 13.4292 14.9697L13.3379 15.0556C13.8748 16.5609 14.9791 16.747 16.0834 16.9331C16.7313 17.0405 17.3774 17.1497 17.9287 17.4701C19.1914 16.1196 20.0314 14.4293 20.3452 12.6073C20.6591 10.7854 20.4331 8.91138 19.695 7.21629C18.957 5.5212 17.7391 4.07905 16.1916 3.06756C14.644 2.05607 12.8344 1.51941 10.9856 1.52372C9.13678 1.52804 7.32964 2.07313 5.78682 3.09183C4.244 4.11053 3.03291 5.55834 2.30278 7.25686C1.57264 8.95537 1.35537 10.8304 1.67772 12.6509C2.00008 14.4713 2.84798 16.1577 4.11694 17.5023Z" fill="white"/>
<circle cx="11" cy="11" r="10" stroke="#FF0000" stroke-width="2"/>
</svg>
