<svg width="32" height="32" viewBox="0 0 32 32" fill="none" xmlns="http://www.w3.org/2000/svg">
<path d="M2.68571 32H18.8C20.281 32 21.4857 30.7996 21.4857 29.324V14.3387C21.4857 12.8631 20.281 11.6627 18.8 11.6627H18.2629V10.0571H17.1886V11.6627H16.1143V10.0571H15.04V11.6627H6.44571V10.0571H5.37143V11.6627H4.29714V10.0571H3.22286V11.6627H2.68571C1.20473 11.6627 0 12.8631 0 14.3387V29.324C0 30.7996 1.20473 32 2.68571 32ZM18.8 30.9296H2.68571C1.79725 30.9296 1.07429 30.2093 1.07429 29.324V28.7888H20.4114V29.324C20.4114 30.2093 19.6885 30.9296 18.8 30.9296ZM1.07429 27.7185V15.9442H20.4114V27.7185H1.07429ZM2.68571 12.7331H3.22286V13.8035H4.29714V12.7331H5.37143V13.8035H6.44571V12.7331H15.04V13.8035H16.1143V12.7331H17.1886V13.8035H18.2629V12.7331H18.8C19.6885 12.7331 20.4114 13.4534 20.4114 14.3387V14.8739H1.07429V14.3387C1.07429 13.4534 1.79725 12.7331 2.68571 12.7331Z" fill="#0057FF"/>
<path d="M22.8572 12.8741V19.2494C22.8572 21.2996 24.5623 22.9683 26.6572 22.9683V30.9374H24.4857V32H29.9143V30.9374H27.7429V22.9683C29.8378 22.9683 31.5429 21.2996 31.5429 19.2494V12.8741C31.5429 12.5803 31.3003 12.3428 31 12.3428H23.4C23.0998 12.3428 22.8572 12.5803 22.8572 12.8741ZM27.7429 21.9058H26.6572C25.1604 21.9058 23.9429 20.7142 23.9429 19.2494V16.593H30.4572V19.2494C30.4572 20.7142 29.2396 21.9058 27.7429 21.9058ZM30.4572 13.4054V15.5305H23.9429V13.4054H30.4572Z" fill="#0057FF"/>
<path d="M0.533333 0H0V1.1102H0.203813L3.25667 7.46437C3.34668 7.65271 3.5312 7.7714 3.73334 7.7714C3.93548 7.7714 4.12001 7.6527 4.21072 7.46437L6.66667 2.35147L9.12263 7.46462C9.21334 7.65271 9.39787 7.77141 9.60001 7.77141C9.80215 7.77141 9.98668 7.65271 10.0774 7.46437L12.8 1.79638L15.5226 7.46463C15.6133 7.65271 15.7979 7.77142 16 7.77142C16.2022 7.77142 16.3867 7.65271 16.4774 7.46438L18.9333 2.35148L21.3893 7.46463C21.48 7.65272 21.6645 7.77142 21.8667 7.77142C22.0688 7.77142 22.2533 7.65272 22.3441 7.46438L25.0667 1.79639L27.7893 7.46464C27.88 7.65273 28.0645 7.77143 28.2667 7.77143C28.4688 7.77143 28.6533 7.65273 28.7441 7.46439L31.7962 1.11023H32V2.54105e-05L0.533333 0ZM3.73333 5.97505L1.39618 1.1102H6.07025L3.73333 5.97505ZM9.6 5.97505L7.26284 1.1102H11.9369L9.6 5.97505ZM16 5.97505L13.6628 1.1102H18.3369L16 5.97505ZM21.8667 5.97505L19.5295 1.1102H24.2036L21.8667 5.97505ZM28.2667 5.97505L25.9295 1.1102H30.6036L28.2667 5.97505Z" fill="#0057FF"/>
<path d="M26.5142 10.0571H27.8856V11.4286H26.5142V10.0571Z" fill="#0057FF"/>
<path d="M28.8 9.14282H29.7143V10.0571H28.8V9.14282Z" fill="#0057FF"/>
<path d="M24.6855 9.14282H25.5998V10.0571H24.6855V9.14282Z" fill="#0057FF"/>
<path d="M14.543 17.8286H6.943C6.64274 17.8286 6.40015 18.0584 6.40015 18.3429V25.5429C6.40015 25.8274 6.64274 26.0572 6.943 26.0572H14.543C14.8433 26.0572 15.0859 25.8274 15.0859 25.5429V18.3429C15.0859 18.0584 14.8433 17.8286 14.543 17.8286ZM14.0001 25.0286H7.48586V18.8572H14.0001V25.0286Z" fill="#0057FF"/>
<path d="M10.1955 24.2286C10.2036 24.2286 10.2114 24.2286 10.2195 24.2281C10.3685 24.2212 10.5076 24.1512 10.6037 24.0353L13.2571 20.8041L12.4414 20.1143L10.16 22.8926L8.97879 21.6939L8.22852 22.4553L9.82053 24.0709C9.91955 24.1726 10.0548 24.2286 10.1955 24.2286Z" fill="white"/>
</svg>
