<svg width="41" height="27" viewBox="0 0 41 27" fill="none" xmlns="http://www.w3.org/2000/svg">
<path d="M2.79545 27C2.01894 27 1.3589 26.7188 0.815341 26.1562C0.27178 25.5938 0 24.9107 0 24.1071V2.89286C0 2.08929 0.27178 1.40625 0.815341 0.84375C1.3589 0.28125 2.01894 0 2.79545 0H23.2955C24.072 0 24.732 0.28125 25.2756 0.84375C25.8191 1.40625 26.0909 2.08929 26.0909 2.89286V24.1071C26.0909 24.9107 25.8191 25.5938 25.2756 26.1562C24.732 26.7188 24.072 27 23.2955 27H2.79545ZM31.6818 11.5714C31.1538 11.5714 30.7112 11.3866 30.354 11.017C29.9968 10.6473 29.8182 10.1893 29.8182 9.64286V1.92857C29.8182 1.38214 29.9968 0.924107 30.354 0.554464C30.7112 0.184821 31.1538 0 31.6818 0H39.1364C39.6644 0 40.107 0.184821 40.4642 0.554464C40.8214 0.924107 41 1.38214 41 1.92857V9.64286C41 10.1893 40.8214 10.6473 40.4642 11.017C40.107 11.3866 39.6644 11.5714 39.1364 11.5714H31.6818ZM32.6136 8.67857H38.2045V2.89286H32.6136V8.67857ZM2.79545 24.1071H23.2955V2.89286H2.79545V24.1071ZM5.59091 19.2857H20.5L15.608 12.5357L12.1136 17.3571L9.55114 13.8375L5.59091 19.2857ZM31.6818 27C31.1538 27 30.7112 26.8152 30.354 26.4455C29.9968 26.0759 29.8182 25.6179 29.8182 25.0714V17.3571C29.8182 16.8107 29.9968 16.3527 30.354 15.983C30.7112 15.6134 31.1538 15.4286 31.6818 15.4286H39.1364C39.6644 15.4286 40.107 15.6134 40.4642 15.983C40.8214 16.3527 41 16.8107 41 17.3571V25.0714C41 25.6179 40.8214 26.0759 40.4642 26.4455C40.107 26.8152 39.6644 27 39.1364 27H31.6818ZM32.6136 24.1071H38.2045V18.3214H32.6136V24.1071ZM2.79545 24.1071V2.89286V24.1071ZM32.6136 8.67857V2.89286V8.67857ZM32.6136 24.1071V18.3214V24.1071Z" fill="#020202"/>
</svg>
