<svg width="26" height="32" viewBox="0 0 26 32" fill="none" xmlns="http://www.w3.org/2000/svg">
<path d="M16.963 28.726L22.7702 22.8465H16.963V28.726ZM5.11911 16.1311H20.8806V17.5705H5.11911V16.1311ZM25.9997 22.0955C25.9997 22.5202 25.7031 22.8874 25.296 22.9937L16.7424 31.6573C16.5645 31.8698 16.2933 32 15.9965 32H1.73791C1.25477 32 0.822453 31.8122 0.508829 31.5102C0.194934 31.2081 0 30.7919 0 30.326V1.67397C0 1.2086 0.194934 0.792194 0.508558 0.490108C0.822453 0.187762 1.26315 0 1.73791 0H24.2621C24.7369 0 25.1778 0.187762 25.4914 0.489848C25.8051 0.791934 26 1.2086 26 1.67371L25.9997 22.0955ZM24.0585 20.977V1.86981H1.9415V30.1383H15.0221V21.9158C15.0221 21.4015 15.4544 20.977 15.9967 20.977H24.0585Z" fill="#0057FF"/>
</svg>
