<svg width="19" height="22" viewBox="0 0 19 22" fill="none" xmlns="http://www.w3.org/2000/svg">
<path d="M10.4348 7.13743C10.4348 6.9348 10.408 6.63095 10.086 6.3269L8.74494 4.90866C8.66449 4.80743 8.3962 4.52883 7.94023 4.47813C7.69887 4.45287 7.35014 4.47813 6.97463 4.75673C6.89418 4.80743 6.2773 5.26322 6.00903 5.89638C5.82119 6.25094 4.45335 9.11288 7.94023 12.7598L8.02068 12.8358C10.1932 15.1658 12.2586 15.6471 13.5997 15.6471C14.3774 15.6471 14.8871 15.4951 15.048 15.4444C15.7185 15.267 16.2819 14.7353 16.3354 14.6846C16.6842 14.3553 16.7646 14.0261 16.7646 13.7981C16.7646 13.3675 16.4963 13.0889 16.3891 12.9875L15.048 11.5693C14.7529 11.24 14.4311 11.164 14.2166 11.1388C13.8143 11.1135 13.5192 11.3161 13.4118 11.3921L12.661 12.0002C11.9637 11.6203 11.3467 11.1136 10.7565 10.5059L10.7028 10.4552C10.1395 9.84736 9.68356 9.2142 9.36174 8.50506L10.086 7.84661C10.1664 7.79591 10.4347 7.54257 10.4347 7.13729L10.4348 7.13743ZM9.362 7.11217L8.10136 8.25182L8.23551 8.55568C8.61101 9.49271 9.17438 10.3285 9.92536 11.1136L9.97905 11.1643C10.7301 11.9494 11.5347 12.5573 12.4734 13.0385L12.7952 13.1904L14.1363 12.152L14.1631 12.1268C14.1631 12.1268 14.1898 12.152 14.2435 12.2027L15.5847 13.621L15.6114 13.6462C15.6114 13.6462 15.6651 13.6969 15.6651 13.7474C15.6651 13.7727 15.6383 13.8234 15.5579 13.8994C15.4507 14.0006 15.0752 14.3299 14.6995 14.4059L14.6458 14.4311C14.5386 14.4818 11.8831 15.3936 8.79856 12.1264L8.71811 12.0504C5.66038 8.83444 6.92102 6.45371 7.00149 6.3524L7.02825 6.30188C7.16239 5.99801 7.53791 5.66872 7.67203 5.5675C7.75248 5.5168 7.80617 5.49153 7.83293 5.49153C7.85968 5.49153 7.88663 5.5168 7.94014 5.54224L9.33494 7.01117C9.36188 7.06152 9.36188 7.08696 9.36188 7.11222L9.362 7.11217Z" fill="#FF0000"/>
<path d="M19 18.3721V2.86315C19 1.28835 17.6589 0 16.0197 0H4.09804C2.45877 0 1.11768 1.28835 1.11768 2.86315V3.81747C1.11768 4.07994 1.34117 4.29463 1.61437 4.29463C1.88757 4.29463 2.11106 4.07992 2.11106 3.81747V2.86315C2.11106 1.81327 3.00518 0.954314 4.09804 0.954314H16.0197C17.1125 0.954314 18.0066 1.81327 18.0066 2.86315V18.3721C18.0066 19.422 17.1125 20.281 16.0197 20.281H4.09804C3.00518 20.281 2.11106 19.422 2.11106 18.3721V17.1791C2.11106 16.9167 1.88757 16.702 1.61437 16.702C1.34117 16.702 1.11768 16.9167 1.11768 17.1791V18.3721C1.11768 19.9469 2.45877 21.2353 4.09804 21.2353H16.0197C17.6589 21.2353 19 19.9469 19 18.3721Z" fill="white"/>
<path d="M1.11768 7.20257V12.9151C1.11768 13.1883 1.36912 13.4118 1.6765 13.4118C1.98387 13.4118 2.23532 13.1883 2.23532 12.9151V7.20257C2.23532 6.92935 1.98387 6.70587 1.6765 6.70587C1.36912 6.70587 1.11768 6.92936 1.11768 7.20257Z" fill="#FF0000"/>
<path d="M0.419094 5.58823H2.93385C3.16438 5.58823 3.35294 5.33678 3.35294 5.0294C3.35294 4.72203 3.16437 4.47058 2.93385 4.47058H0.419094C0.188565 4.47058 0 4.72203 0 5.0294C0 5.33678 0.188576 5.58823 0.419094 5.58823Z" fill="white"/>
<path d="M0.419094 15.6471H2.93385C3.16438 15.6471 3.35294 15.3956 3.35294 15.0882C3.35294 14.7809 3.16437 14.5294 2.93385 14.5294H0.419094C0.188565 14.5294 0 14.7809 0 15.0882C0 15.3956 0.188576 15.6471 0.419094 15.6471Z" fill="white"/>
</svg>
