<svg width="14" height="13" viewBox="0 0 14 13" fill="none" xmlns="http://www.w3.org/2000/svg">
<path fill-rule="evenodd" clip-rule="evenodd" d="M5.14422 10.3034H13.8558C13.9355 10.3034 14 10.3792 14 10.4726V12.8308C14 12.9243 13.9355 13 13.8558 13H5.14422C5.06455 13 5 12.9243 5 12.8308V10.4726C5 10.3792 5.06555 10.3034 5.14422 10.3034ZM5.14422 5.15173H13.8558C13.9355 5.15173 14 5.22745 14 5.32093V7.67907C14 7.77255 13.9355 7.84827 13.8558 7.84827H5.14422C5.06455 7.84827 5 7.77255 5 7.67907V5.32093C5 5.22745 5.06555 5.15173 5.14422 5.15173ZM5.14422 0H13.8558C13.9355 0 14 0.0757259 14 0.1692V2.52735C14 2.62082 13.9355 2.69655 13.8558 2.69655H5.14422C5.06455 2.69655 5 2.62082 5 2.52735V0.1692C5 0.0757259 5.06555 0 5.14422 0Z" fill="white"/>
<path fill-rule="evenodd" clip-rule="evenodd" d="M1.5 10.0975C2.32763 10.0975 3 10.7469 3 11.5488C3 12.3495 2.32882 13 1.5 13C0.671178 12.9988 0 12.3495 0 11.5488C0 10.7469 0.671178 10.0975 1.5 10.0975ZM1.5 5.04817C2.32763 5.04817 3 5.69754 3 6.49942C3 7.30015 2.32882 7.95067 1.5 7.95067C0.671178 7.95067 0 7.30131 0 6.49942C0 5.69869 0.671178 5.04817 1.5 5.04817ZM1.5 0C2.32763 0 3 0.649365 3 1.45125C3 2.25198 2.32882 2.9025 1.5 2.9025C0.671178 2.90134 0 2.25198 0 1.45125C0 0.649365 0.671178 0 1.5 0Z" fill="#FF0000"/>
</svg>
