<svg width="40" height="32" viewBox="0 0 40 32" fill="none" xmlns="http://www.w3.org/2000/svg">
<path d="M1.57553 8.89301H29.5443C29.75 8.8924 29.9537 8.93267 30.1437 9.01149C30.3337 9.09031 30.5062 9.20611 30.651 9.35215C30.9438 9.64634 31.1088 10.0442 31.11 10.4593V30.4368C31.1106 30.6421 31.0703 30.8454 30.9915 31.0349C30.9127 31.2244 30.7969 31.3964 30.651 31.5407C30.6269 31.5678 30.5996 31.5919 30.5697 31.6124C30.2854 31.8669 29.9159 32.0052 29.5345 31.9999H1.56576C1.15106 31.9999 0.753298 31.8353 0.459755 31.5422C0.166213 31.2492 0.000869073 30.8517 6.90945e-06 30.4368V10.4593C-0.000606674 10.2535 0.0396519 10.0497 0.118445 9.85966C0.197237 9.6696 0.312994 9.49709 0.458991 9.35215C0.752873 9.05898 1.15072 8.89393 1.56576 8.89301H1.57553ZM10.4655 6.91181e-06H38.4342C38.6399 -0.000606882 38.8437 0.0396655 39.0337 0.118485C39.2237 0.197305 39.3961 0.313101 39.541 0.459148C39.8338 0.75333 39.9987 1.15118 40 1.5663V21.5438C40.0005 21.7491 39.9602 21.9524 39.8814 22.1419C39.8026 22.3314 39.6869 22.5034 39.541 22.6477C39.5177 22.6756 39.4903 22.6998 39.4596 22.7193C39.1741 22.9817 38.7991 23.125 38.4115 23.1199H36.6602V21.2377H38.1283V1.85937H10.7617V3.22702H8.88998V1.5663C8.88936 1.36054 8.92962 1.15671 9.00842 0.966651C9.08721 0.77659 9.20296 0.604083 9.34896 0.459148C9.64304 0.166268 10.0408 0.00127623 10.4557 6.91181e-06H10.4655ZM6.02214 4.44814H33.9909C34.1961 4.4476 34.3993 4.48791 34.5888 4.56674C34.7782 4.64557 34.9501 4.76133 35.0944 4.90728C35.3876 5.19986 35.5527 5.5969 35.5534 6.01117V25.9887C35.554 26.1944 35.5137 26.3983 35.4349 26.5883C35.3562 26.7784 35.2404 26.9509 35.0944 27.0958C35.0702 27.1229 35.0429 27.1469 35.013 27.1675C34.7288 27.422 34.3593 27.5603 33.9779 27.555H32.2266V25.6859H33.6947V6.3075H6.31511V7.67515H4.44336V6.01117C4.44423 5.59633 4.60957 5.19877 4.90311 4.90574C5.19666 4.61271 5.59442 4.44814 6.00912 4.44814H6.02214ZM29.2513 10.7459H1.87175V30.1307H29.2513V10.7459Z" fill="white"/>
<path d="M8.55143 13C8.99594 12.9994 9.43065 13.1307 9.80052 13.3773C10.1704 13.6239 10.4588 13.9748 10.6292 14.3855C10.7996 14.7962 10.8443 15.2483 10.7578 15.6844C10.6712 16.1206 10.4572 16.5212 10.1429 16.8356C9.82859 17.1501 9.42808 17.3641 8.99208 17.4507C8.55607 17.5373 8.10419 17.4925 7.69364 17.3221C7.28309 17.1516 6.93233 16.8631 6.68577 16.4931C6.43922 16.1231 6.30795 15.6883 6.30859 15.2436C6.30859 14.949 6.36661 14.6572 6.47932 14.385C6.59203 14.1128 6.75724 13.8655 6.96551 13.6571C7.17377 13.4488 7.42102 13.2835 7.69313 13.1708C7.96525 13.058 8.2569 13 8.55143 13ZM17.9915 22.6354L22.487 14.8594L27.2558 26.9273H5V25.4326L6.86849 25.3382L8.74023 20.7533L9.67448 24.0292H12.4805L14.9121 17.7607L17.998 22.6257L17.9915 22.6354Z" fill="#0057FF"/>
</svg>
