<svg width="42" height="21" viewBox="0 0 42 21" fill="none" xmlns="http://www.w3.org/2000/svg">
<path d="M6.53857 14.1918C6.44084 14.0859 6.35062 13.9736 6.26855 13.8556C6.07031 13.5866 5.88232 13.3076 5.70459 13.0285L4.80566 11.6333C4.51203 11.2627 4.33288 10.8169 4.28955 10.3489C4.28012 10.1529 4.33342 9.95895 4.44194 9.79429C4.55047 9.62964 4.70876 9.50261 4.89453 9.43109C4.86377 8.90325 4.84326 8.36868 4.84326 7.83747C4.84326 7.5248 4.84326 7.2054 4.86035 6.89609C4.87428 6.69766 4.91097 6.50141 4.96973 6.31109C5.21979 5.51247 5.76324 4.83407 6.49414 4.40815C6.75654 4.25923 7.03227 4.13431 7.31787 4.03496C7.84082 3.84668 7.58789 3.05996 8.16211 3.04651C9.50195 3.01289 11.7065 4.14255 12.5645 5.06376C13.1264 5.65078 13.4404 6.426 13.4429 7.2323L13.3882 9.54204C13.5052 9.57022 13.6123 9.62924 13.6978 9.71276C13.7833 9.79629 13.8441 9.90115 13.8735 10.0161C13.9241 10.438 13.8354 10.8647 13.6206 11.2332C13.6206 11.2533 13.6035 11.2533 13.6035 11.2701L12.5781 12.9277C12.3457 13.3008 12.1064 13.6841 11.8364 14.0338C11.5186 14.454 11.2554 14.37 11.5288 14.7802C11.6574 14.9426 11.8029 15.0913 11.9629 15.224C10.001 16.0813 8.45947 17.5438 8.45947 20.9899H0C0 15.7283 4.67236 17.4026 6.62402 14.7566C6.84961 14.4204 6.7915 14.4574 6.53857 14.1918ZM30.8403 14.4305C30.7482 14.3297 30.6615 14.2242 30.5806 14.1145C30.3926 13.8556 30.208 13.5866 30.0371 13.3143L29.1724 11.9695C28.8866 11.6123 28.7121 11.1814 28.6699 10.7289C28.6613 10.5395 28.7135 10.3522 28.819 10.1935C28.9244 10.0349 29.078 9.91281 29.2578 9.84463C29.2271 9.33696 29.2065 8.8192 29.2065 8.30816C29.2065 8.00221 29.2065 7.69626 29.2065 7.39704C29.2182 7.20657 29.2526 7.01812 29.3091 6.83557C29.5496 6.06505 30.0737 5.41049 30.7788 4.99988C31.0322 4.84891 31.3001 4.72278 31.5786 4.62332C32.0811 4.44177 31.8384 3.68194 32.3921 3.67186C33.6841 3.63823 35.8101 4.72755 36.6406 5.61177C37.1828 6.17772 37.4859 6.92534 37.4883 7.70299L37.4336 9.93204C37.547 9.95812 37.6509 10.0147 37.7336 10.0954C37.8163 10.1761 37.8745 10.2779 37.9019 10.3893C37.9519 10.7959 37.8668 11.2076 37.6592 11.5626C37.6592 11.5626 37.6421 11.5627 37.6421 11.5963L36.6577 13.1966C36.4321 13.5564 36.2031 13.9262 35.9434 14.2658C35.6323 14.6692 35.3794 14.602 35.6426 14.9852C37.5293 17.5371 42 15.9266 42 21H33.8379C33.8379 17.7287 32.416 16.2292 30.5806 15.3483C30.6974 15.236 30.8049 15.1146 30.9019 14.9852C31.1172 14.6726 31.0625 14.6961 30.8164 14.4406L30.8403 14.4305Z" fill="white"/>
<path d="M18.3809 13.6976C17.7622 13.1596 16.9863 12.6889 16.8838 11.5694H16.8154C16.6619 11.5697 16.511 11.5303 16.3779 11.4551C16.1584 11.3197 15.9893 11.118 15.896 10.8801C15.6738 10.3758 15.4961 9.05454 16.0566 8.67463L15.9507 8.60739V8.45945C15.9302 8.19385 15.9233 7.87109 15.9165 7.53152C15.896 6.28755 15.8721 4.78134 14.8535 4.47875L14.4194 4.34763L14.7065 4.01143C15.4576 3.07349 16.3115 2.21996 17.2529 1.46633C18.0888 0.756413 19.0944 0.26705 20.1753 0.0441745C20.6829 -0.035961 21.2022 -0.00682175 21.6973 0.129582C22.1924 0.265986 22.6515 0.506408 23.043 0.834263C23.326 1.05994 23.5838 1.31465 23.812 1.59409C24.2678 1.64311 24.7079 1.78613 25.1037 2.0138C25.4995 2.24147 25.842 2.54869 26.1089 2.91539C26.4487 3.3603 26.7024 3.86288 26.8574 4.39806C27.0181 4.9437 27.0863 5.51166 27.0591 6.0791C27.029 7.10524 26.6024 8.08153 25.8662 8.80911C25.9958 8.81399 26.1228 8.84609 26.2388 8.90325C26.6626 9.12514 26.6763 9.61265 26.5806 10.0195C26.4712 10.3557 26.3311 10.7524 26.1978 11.0819C26.0371 11.529 25.8047 11.6131 25.3501 11.566C25.3296 12.6587 24.5161 13.1058 23.8223 13.7413C25.5312 16.8546 32.1689 14.8003 32.1689 20.9899H10C10 14.8003 16.4941 16.9554 18.374 13.7009L18.3809 13.6976Z" fill="#FF0000"/>
</svg>
