<svg width="30" height="30" viewBox="0 0 30 30" fill="none" xmlns="http://www.w3.org/2000/svg">
<g filter="url(#filter0_d_11_116)">
<circle cx="15" cy="14" r="14" fill="#236173"/>
</g>
<g filter="url(#filter1_d_11_116)">
<circle cx="15" cy="14" r="13" fill="white"/>
</g>
<g clip-path="url(#clip0_11_116)">
<path d="M14.9454 18.5506C14.9342 17.8794 15.1176 17.219 15.474 16.6478C15.845 16.0518 16.3933 15.584 17.0437 15.3086C17.2765 15.2094 17.5185 15.1328 17.7663 15.0799C18.5556 14.9035 19.3824 15.0083 20.1012 15.376C20.82 15.7437 21.3845 16.3505 21.6954 17.0897C21.7947 17.3194 21.871 17.5583 21.9232 17.8027C22.0485 18.3799 22.0191 18.9795 21.8379 19.542C21.6541 20.1065 21.3252 20.6141 20.8835 21.0151C20.4634 21.409 19.957 21.7013 19.4037 21.8693C18.8746 22.0251 18.3136 22.0415 17.7761 21.9169C17.6003 21.8765 17.4284 21.8209 17.2624 21.7508C17.0911 21.6791 16.9265 21.5929 16.7702 21.4931C16.7149 21.4576 16.6761 21.4017 16.6624 21.3379C16.6486 21.274 16.6611 21.2074 16.697 21.1527C16.7329 21.0979 16.7893 21.0595 16.8539 21.0459C16.9184 21.0323 16.9857 21.0447 17.0411 21.0802C17.1731 21.1657 17.3125 21.2395 17.4577 21.3005C17.597 21.3592 17.7412 21.4057 17.8887 21.4396C18.3428 21.545 18.8168 21.531 19.2637 21.399C19.7439 21.254 20.1835 21.0009 20.5482 20.6596C20.9266 20.3155 21.2083 19.8803 21.3659 19.3964C21.5209 18.9149 21.5456 18.4016 21.4375 17.9077C21.3929 17.6944 21.3275 17.4858 21.2422 17.2848C20.977 16.6492 20.4925 16.1272 19.8748 15.8118C19.2572 15.4964 18.5465 15.408 17.8692 15.5624C17.6531 15.6084 17.442 15.6751 17.239 15.7614C16.683 15.9968 16.2143 16.3967 15.8972 16.9061C15.5834 17.4084 15.425 17.9906 15.4415 18.5809L16.0111 17.9548C16.033 17.9306 16.0596 17.9109 16.0892 17.8968C16.1188 17.8828 16.1509 17.8747 16.1837 17.8729C16.2165 17.8711 16.2494 17.8758 16.2803 17.8866C16.3113 17.8973 16.3399 17.9141 16.3643 17.9358C16.3888 17.9575 16.4087 17.9837 16.4229 18.013C16.437 18.0423 16.4453 18.0741 16.4471 18.1066C16.4488 18.139 16.4441 18.1715 16.4332 18.2021C16.4223 18.2328 16.4054 18.261 16.3835 18.2852L15.4252 19.3397C15.3809 19.3881 15.3191 19.4172 15.2532 19.4206C15.1873 19.424 15.1227 19.4014 15.0736 19.3577L14.0762 18.405C14.0287 18.3598 14.0012 18.2976 13.9999 18.2323C13.9986 18.1671 14.0236 18.1039 14.0694 18.0569C14.1151 18.0098 14.1779 17.9826 14.2439 17.9814C14.3099 17.9801 14.3737 18.0048 14.4213 18.0501L14.9454 18.5506ZM18.0827 17.1187C18.0827 17.0532 18.109 16.9905 18.1558 16.9442C18.2025 16.8979 18.2659 16.8719 18.3321 16.8719C18.3982 16.8719 18.4616 16.8979 18.5084 16.9442C18.5552 16.9905 18.5814 17.0532 18.5814 17.1187V18.5293L19.7058 19.1471C19.7603 19.1803 19.7997 19.2331 19.8159 19.2944C19.8321 19.3557 19.8238 19.4208 19.7926 19.4762C19.7615 19.5315 19.71 19.5729 19.6488 19.5916C19.5877 19.6104 19.5215 19.605 19.4642 19.5767L18.2318 18.8984C18.1874 18.8791 18.1496 18.8474 18.1231 18.8071C18.0966 18.7668 18.0826 18.7198 18.0827 18.6717V17.1187Z" fill="black"/>
</g>
<g clip-path="url(#clip1_11_116)">
<path d="M13.7493 18H7.56634C7.49207 17.9998 7.41857 17.9858 7.35005 17.9588C7.28153 17.9318 7.21933 17.8924 7.167 17.8428C7.11388 17.7938 7.07173 17.7353 7.04304 17.6707C7.01436 17.6061 6.99972 17.5368 7 17.4668V6.53223C6.9998 6.46239 7.01448 6.39322 7.04316 6.32881C7.07185 6.2644 7.11395 6.20605 7.167 6.15723C7.21901 6.10722 7.28116 6.06753 7.34975 6.04052C7.41834 6.01352 7.49199 5.99974 7.56634 6H16.4254C16.575 6.00077 16.7184 6.05709 16.8242 6.15674C16.93 6.25638 16.9899 6.39131 16.9907 6.53223V14.8984C16.9959 14.918 16.999 14.9379 17 14.958C16.9995 14.9922 16.9916 15.0259 16.9768 15.0572C16.962 15.0884 16.9406 15.1165 16.9139 15.1397L13.992 17.9229C13.9226 17.9735 13.8371 18.0007 13.7493 18ZM9.80054 14.5205C9.97725 14.5202 10.1523 14.5529 10.3155 14.6166C10.4788 14.6802 10.627 14.7737 10.7517 14.8916L10.7589 14.8984C10.9778 15.1073 11.1131 15.3811 11.1417 15.6733C11.1704 15.9654 11.0907 16.2579 10.9162 16.501C10.7417 16.7441 10.4831 16.9227 10.1845 17.0066C9.88585 17.0905 9.56558 17.0744 9.27814 16.961C8.9907 16.8477 8.75383 16.6441 8.60782 16.3849C8.4618 16.1257 8.41566 15.8269 8.47722 15.5392C8.53879 15.2516 8.70427 14.9929 8.94552 14.8072C9.18678 14.6215 9.48891 14.5202 9.80054 14.5205ZM9.80054 15.1143C9.94198 15.1141 10.0803 15.1534 10.198 15.2273C10.3157 15.3011 10.4074 15.4062 10.4616 15.5292C10.5159 15.6522 10.5301 15.7875 10.5026 15.9181C10.475 16.0488 10.4069 16.1687 10.3069 16.2629C10.2069 16.357 10.0795 16.4212 9.94075 16.4471C9.80202 16.473 9.65824 16.4596 9.52761 16.4086C9.39699 16.3575 9.28538 16.2711 9.20693 16.1603C9.12848 16.0495 9.08672 15.9193 9.08692 15.7861C9.0872 15.608 9.16247 15.4373 9.29624 15.3113C9.43001 15.1854 9.61136 15.1145 9.80054 15.1143ZM10.5629 15.0693C10.3624 14.8821 10.0912 14.7774 9.80876 14.7782C9.52634 14.7791 9.25581 14.8853 9.05653 15.0737C8.85725 15.2621 8.74549 15.5173 8.74578 15.7832C8.74607 16.0491 8.85839 16.304 9.05808 16.492C9.25778 16.68 9.52854 16.7858 9.81096 16.786C10.0934 16.7863 10.3644 16.6811 10.5645 16.4935C10.7646 16.3058 10.8775 16.0511 10.8783 15.7852C10.8792 15.5193 10.768 15.264 10.5691 15.0752L10.5629 15.0693ZM8.54341 7.29786H10.0588C10.0819 7.29786 10.1041 7.3065 10.1204 7.32188C10.1368 7.33727 10.1459 7.35813 10.1459 7.37989V8.68067C10.1457 8.70235 10.1364 8.72306 10.1201 8.73839C10.1038 8.75372 10.0818 8.76245 10.0588 8.7627H8.54341C8.52039 8.76245 8.49838 8.75372 8.4821 8.73839C8.46582 8.72306 8.45655 8.70235 8.45628 8.68067V7.37989C8.45628 7.35813 8.46546 7.33727 8.4818 7.32188C8.49814 7.3065 8.5203 7.29786 8.54341 7.29786ZM15.1631 8.74414H14.1922V7.31641H14.6756V8.37891H15.1631V8.74414ZM14.0221 8.74414H13.0523V7.31641H13.5346V8.37891H14.02V8.74414H14.0221ZM12.2899 8.74414V7.31641H12.7753V8.74414H12.2899ZM10.817 8.74414V7.31641H11.6033C11.7139 7.30664 11.8245 7.3351 11.9144 7.39649C11.9471 7.42642 11.9724 7.46276 11.9886 7.50292C12.0047 7.54308 12.0113 7.5861 12.0078 7.62891C12.0134 7.71159 11.9925 7.79395 11.9476 7.86524C11.9109 7.91888 11.8543 7.95783 11.7889 7.97461V7.98829C11.9839 8.01954 12.0825 8.14844 12.0825 8.36426C12.0866 8.46327 12.0519 8.56026 11.985 8.63672C11.9462 8.67348 11.8994 8.70187 11.8478 8.71991C11.7962 8.73795 11.7411 8.74522 11.6862 8.74121L10.817 8.74414ZM11.4923 8.17481H11.3004V8.40821H11.4871C11.5555 8.40821 11.5908 8.36914 11.5908 8.292C11.5908 8.21485 11.5576 8.17481 11.4871 8.17481H11.4923ZM11.4549 7.62891H11.3004V7.8418H11.4508C11.512 7.8418 11.5431 7.80664 11.5431 7.73536C11.5431 7.66407 11.513 7.62891 11.4529 7.62891H11.4549ZM9.43958 10.4775C9.39368 10.4743 9.35078 10.4548 9.31948 10.423C9.28817 10.3912 9.27078 10.3495 9.27078 10.3062C9.27078 10.2628 9.28817 10.2211 9.31948 10.1893C9.35078 10.1575 9.39368 10.138 9.43958 10.1348H13.0824C13.1283 10.138 13.1712 10.1575 13.2025 10.1893C13.2338 10.2211 13.2512 10.2628 13.2512 10.3062C13.2512 10.3495 13.2338 10.3912 13.2025 10.423C13.1712 10.4548 13.1283 10.4743 13.0824 10.4775H9.43958ZM9.43958 13.1025C9.39144 13.1025 9.34527 13.0845 9.31123 13.0525C9.27719 13.0204 9.25807 12.977 9.25807 12.9316C9.25807 12.8863 9.27719 12.8429 9.31123 12.8108C9.34527 12.7788 9.39144 12.7607 9.43958 12.7607H14.4681C14.5162 12.7607 14.5624 12.7788 14.5965 12.8108C14.6305 12.8429 14.6496 12.8863 14.6496 12.9316C14.6496 12.977 14.6305 13.0204 14.5965 13.0525C14.5624 13.0845 14.5162 13.1025 14.4681 13.1025H9.43958ZM9.43958 12.0576C9.39144 12.0576 9.34527 12.0396 9.31123 12.0076C9.27719 11.9755 9.25807 11.932 9.25807 11.8867C9.25807 11.8414 9.27719 11.7979 9.31123 11.7659C9.34527 11.7338 9.39144 11.7158 9.43958 11.7158H13.0824C13.1305 11.7158 13.1767 11.7338 13.2107 11.7659C13.2448 11.7979 13.2639 11.8414 13.2639 11.8867C13.2639 11.932 13.2448 11.9755 13.2107 12.0076C13.1767 12.0396 13.1305 12.0576 13.0824 12.0576H9.43958ZM15.2274 11.2344H8.77264V13.5723H15.2274V11.2344ZM8.77264 10.8926H15.2274V9.6709H8.77264V10.8926ZM8.59113 9.33008H15.4089C15.457 9.33008 15.5032 9.34809 15.5372 9.38014C15.5713 9.41219 15.5904 9.45566 15.5904 9.50098V13.7432C15.5893 13.7878 15.5697 13.8303 15.5358 13.8615C15.5019 13.8927 15.4563 13.9102 15.4089 13.9102H8.59113C8.54298 13.9102 8.49681 13.8922 8.46277 13.8601C8.42873 13.8281 8.40961 13.7846 8.40961 13.7393V9.49903C8.40961 9.4537 8.42873 9.41023 8.46277 9.37818C8.49681 9.34613 8.54298 9.32813 8.59113 9.32813V9.33008ZM13.5346 17.5234V15.4385C13.5342 15.3435 13.5538 15.2493 13.5922 15.1615C13.6306 15.0736 13.6871 14.9938 13.7585 14.9266C13.8298 14.8594 13.9146 14.8062 14.0079 14.77C14.1012 14.7339 14.2012 14.7154 14.3022 14.7158H16.4741V6.53223C16.4746 6.52478 16.4732 6.51733 16.4699 6.51052C16.4667 6.50372 16.4617 6.49776 16.4555 6.49317C16.4504 6.48769 16.4442 6.48329 16.4372 6.48026C16.4303 6.47723 16.4227 6.47564 16.415 6.47559H7.56115C7.55324 6.47512 7.54532 6.47648 7.53809 6.47954C7.53086 6.48261 7.52454 6.48728 7.51966 6.49317C7.50905 6.50381 7.5028 6.51765 7.50203 6.53223V17.4697C7.50078 17.4771 7.50178 17.4847 7.50489 17.4916C7.50801 17.4985 7.51313 17.5045 7.51966 17.5088C7.52501 17.5141 7.53146 17.5183 7.53859 17.5211C7.54572 17.524 7.5534 17.5254 7.56115 17.5254H13.5346V17.5234ZM14.0418 15.4404V17.1856L16.1277 15.1934H14.3022C14.2335 15.1949 14.168 15.2207 14.1186 15.2656C14.0698 15.3115 14.0422 15.3736 14.0418 15.4385V15.4404Z" fill="black"/>
</g>
<defs>
<filter id="filter0_d_11_116" x="0" y="0" width="30" height="30" filterUnits="userSpaceOnUse" color-interpolation-filters="sRGB">
<feFlood flood-opacity="0" result="BackgroundImageFix"/>
<feColorMatrix in="SourceAlpha" type="matrix" values="0 0 0 0 0 0 0 0 0 0 0 0 0 0 0 0 0 0 127 0" result="hardAlpha"/>
<feOffset dy="1"/>
<feGaussianBlur stdDeviation="0.5"/>
<feComposite in2="hardAlpha" operator="out"/>
<feColorMatrix type="matrix" values="0 0 0 0 0 0 0 0 0 0 0 0 0 0 0 0 0 0 0.25 0"/>
<feBlend mode="normal" in2="BackgroundImageFix" result="effect1_dropShadow_11_116"/>
<feBlend mode="normal" in="SourceGraphic" in2="effect1_dropShadow_11_116" result="shape"/>
</filter>
<filter id="filter1_d_11_116" x="1" y="1" width="28" height="28" filterUnits="userSpaceOnUse" color-interpolation-filters="sRGB">
<feFlood flood-opacity="0" result="BackgroundImageFix"/>
<feColorMatrix in="SourceAlpha" type="matrix" values="0 0 0 0 0 0 0 0 0 0 0 0 0 0 0 0 0 0 127 0" result="hardAlpha"/>
<feOffset dy="1"/>
<feGaussianBlur stdDeviation="0.5"/>
<feComposite in2="hardAlpha" operator="out"/>
<feColorMatrix type="matrix" values="0 0 0 0 0 0 0 0 0 0 0 0 0 0 0 0 0 0 0.25 0"/>
<feBlend mode="normal" in2="BackgroundImageFix" result="effect1_dropShadow_11_116"/>
<feBlend mode="normal" in="SourceGraphic" in2="effect1_dropShadow_11_116" result="shape"/>
</filter>
<clipPath id="clip0_11_116">
<rect width="8" height="7" fill="white" transform="translate(14 15)"/>
</clipPath>
<clipPath id="clip1_11_116">
<rect width="10" height="12" fill="white" transform="translate(7 6)"/>
</clipPath>
</defs>
</svg>
