<svg width="30" height="30" viewBox="0 0 30 30" fill="none" xmlns="http://www.w3.org/2000/svg">
<g filter="url(#filter0_d_11_115)">
<circle cx="15" cy="14" r="14" fill="#236173"/>
</g>
<g filter="url(#filter1_d_11_115)">
<circle cx="15" cy="14" r="13" fill="white"/>
</g>
<g clip-path="url(#clip0_11_115)">
<path d="M8.8906 14.1012C8.86824 12.7588 9.23515 11.4381 9.94789 10.2956C10.6899 9.10363 11.7865 8.16805 13.0872 7.61718C13.5529 7.41873 14.0369 7.26555 14.5325 7.15983C16.111 6.80697 17.7647 7.01667 19.2023 7.75199C20.6398 8.48731 21.7689 9.70105 22.3906 11.1793C22.5893 11.6388 22.7419 12.1165 22.8463 12.6055C23.0968 13.7599 23.038 14.959 22.6758 16.0839C22.308 17.213 21.6503 18.2282 20.7669 19.0303C19.9267 19.8179 18.9138 20.4026 17.8073 20.7386C16.7491 21.0501 15.627 21.083 14.5521 20.8339C14.2005 20.753 13.8567 20.6417 13.5247 20.5015C13.1822 20.3582 12.8528 20.1858 12.5403 19.9862C12.4297 19.9151 12.3521 19.8035 12.3246 19.6758C12.2971 19.5481 12.322 19.4148 12.3939 19.3053C12.4657 19.1958 12.5785 19.119 12.7076 19.0918C12.8366 19.0647 12.9713 19.0893 13.082 19.1604C13.346 19.3315 13.6249 19.4789 13.9153 19.601C14.1939 19.7184 14.4824 19.8115 14.7773 19.8793C15.6855 20.09 16.6335 20.062 17.5273 19.7981C18.4876 19.508 19.3669 19.0018 20.0963 18.3191C20.8531 17.6311 21.4166 16.7606 21.7317 15.7928C22.0418 14.8298 22.0912 13.8032 21.875 12.8155C21.7857 12.3887 21.6548 11.9715 21.4844 11.5697C20.9539 10.2984 19.9849 9.25445 18.7496 8.62365C17.5143 7.99284 16.0929 7.81607 14.7383 8.12477C14.3061 8.21681 13.884 8.35013 13.4778 8.52285C12.366 8.99365 11.4285 9.79333 10.7942 10.8122C10.1668 11.8169 9.84994 12.9812 9.88279 14.1618L11.0221 12.9095C11.066 12.8611 11.119 12.8218 11.1783 12.7937C11.2375 12.7656 11.3018 12.7493 11.3673 12.7458C11.4329 12.7423 11.4986 12.7515 11.5606 12.7731C11.6225 12.7947 11.6796 12.8281 11.7285 12.8715C11.7774 12.9149 11.8172 12.9674 11.8456 13.026C11.874 13.0846 11.8904 13.1482 11.894 13.2131C11.8976 13.278 11.8882 13.343 11.8664 13.4043C11.8446 13.4656 11.8108 13.522 11.7669 13.5704L9.85024 15.6794C9.76171 15.7762 9.638 15.8344 9.50621 15.8412C9.37441 15.8479 9.24529 15.8027 9.14711 15.7155L7.15232 13.8101C7.05718 13.7195 7.00229 13.5953 6.99973 13.4647C6.99716 13.3341 7.04714 13.2079 7.13865 13.1137C7.23016 13.0196 7.35572 12.9653 7.48771 12.9627C7.61969 12.9602 7.74729 13.0097 7.84242 13.1002L8.8906 14.1012ZM15.1653 11.2373C15.1653 11.1064 15.2179 10.9809 15.3114 10.8884C15.4049 10.7959 15.5318 10.7439 15.664 10.7439C15.7963 10.7439 15.9231 10.7959 16.0167 10.8884C16.1102 10.9809 16.1627 11.1064 16.1627 11.2373V14.0587L18.4114 15.2942C18.5205 15.3607 18.5994 15.4662 18.6317 15.5888C18.6641 15.7114 18.6474 15.8416 18.5852 15.9524C18.5229 16.0631 18.4199 16.1458 18.2975 16.1833C18.1752 16.2207 18.043 16.2101 17.9284 16.1535L15.4635 14.7969C15.3746 14.7583 15.299 14.6948 15.246 14.6142C15.193 14.5336 15.165 14.4395 15.1653 14.3434V11.2373Z" fill="black"/>
</g>
<defs>
<filter id="filter0_d_11_115" x="0" y="0" width="30" height="30" filterUnits="userSpaceOnUse" color-interpolation-filters="sRGB">
<feFlood flood-opacity="0" result="BackgroundImageFix"/>
<feColorMatrix in="SourceAlpha" type="matrix" values="0 0 0 0 0 0 0 0 0 0 0 0 0 0 0 0 0 0 127 0" result="hardAlpha"/>
<feOffset dy="1"/>
<feGaussianBlur stdDeviation="0.5"/>
<feComposite in2="hardAlpha" operator="out"/>
<feColorMatrix type="matrix" values="0 0 0 0 0 0 0 0 0 0 0 0 0 0 0 0 0 0 0.25 0"/>
<feBlend mode="normal" in2="BackgroundImageFix" result="effect1_dropShadow_11_115"/>
<feBlend mode="normal" in="SourceGraphic" in2="effect1_dropShadow_11_115" result="shape"/>
</filter>
<filter id="filter1_d_11_115" x="1" y="1" width="28" height="28" filterUnits="userSpaceOnUse" color-interpolation-filters="sRGB">
<feFlood flood-opacity="0" result="BackgroundImageFix"/>
<feColorMatrix in="SourceAlpha" type="matrix" values="0 0 0 0 0 0 0 0 0 0 0 0 0 0 0 0 0 0 127 0" result="hardAlpha"/>
<feOffset dy="1"/>
<feGaussianBlur stdDeviation="0.5"/>
<feComposite in2="hardAlpha" operator="out"/>
<feColorMatrix type="matrix" values="0 0 0 0 0 0 0 0 0 0 0 0 0 0 0 0 0 0 0.25 0"/>
<feBlend mode="normal" in2="BackgroundImageFix" result="effect1_dropShadow_11_115"/>
<feBlend mode="normal" in="SourceGraphic" in2="effect1_dropShadow_11_115" result="shape"/>
</filter>
<clipPath id="clip0_11_115">
<rect width="16" height="14" fill="white" transform="translate(7 7)"/>
</clipPath>
</defs>
</svg>
