<svg width="13" height="13" viewBox="0 0 13 13" fill="none" xmlns="http://www.w3.org/2000/svg">
<path d="M1.09107 13H7.6375C8.23915 13 8.72857 12.5123 8.72857 11.9129V5.82507C8.72857 5.2256 8.23915 4.73796 7.6375 4.73796H7.41929V4.08569H6.98286V4.73796H6.54643V4.08569H6.11V4.73796H2.61857V4.08569H2.18214V4.73796H1.74571V4.08569H1.30929V4.73796H1.09107C0.489423 4.73796 0 5.2256 0 5.82507V11.9129C0 12.5123 0.489423 13 1.09107 13ZM7.6375 12.5651H1.09107C0.730132 12.5651 0.436429 12.2725 0.436429 11.9129V11.6954H8.29214V11.9129C8.29214 12.2725 7.99844 12.5651 7.6375 12.5651ZM0.436429 11.2606V6.47733H8.29214V11.2606H0.436429ZM1.09107 5.1728H1.30929V5.60764H1.74571V5.1728H2.18214V5.60764H2.61857V5.1728H6.11V5.60764H6.54643V5.1728H6.98286V5.60764H7.41929V5.1728H7.6375C7.99844 5.1728 8.29214 5.46544 8.29214 5.82507V6.04249H0.436429V5.82507C0.436429 5.46544 0.730132 5.1728 1.09107 5.1728Z" fill="#0057FF"/>
<path d="M9.28577 5.23011V7.82007C9.28577 8.65296 9.97848 9.33088 10.8295 9.33088V12.5683H9.94737V13H12.1527V12.5683H11.2706V9.33088C12.1216 9.33088 12.8143 8.65296 12.8143 7.82007V5.23011C12.8143 5.11073 12.7158 5.01428 12.5938 5.01428H9.5063C9.38432 5.01428 9.28577 5.11073 9.28577 5.23011ZM11.2706 8.89922H10.8295C10.2215 8.89922 9.72684 8.41515 9.72684 7.82007V6.74092H12.3733V7.82007C12.3733 8.41515 11.8786 8.89922 11.2706 8.89922ZM12.3733 5.44594V6.30926H9.72684V5.44594H12.3733Z" fill="#0057FF"/>
<path d="M0.216667 0H0V0.45102H0.082799L1.32302 3.0324C1.35959 3.10891 1.43455 3.15713 1.51667 3.15713C1.59879 3.15713 1.67375 3.10891 1.7106 3.0324L2.70834 0.955285L3.70607 3.0325C3.74292 3.10891 3.81788 3.15714 3.9 3.15714C3.98212 3.15714 4.05709 3.10891 4.09394 3.0324L5.2 0.729778L6.30607 3.0325C6.34292 3.10891 6.41788 3.15714 6.5 3.15714C6.58212 3.15714 6.65709 3.10891 6.69394 3.0324L7.69167 0.955291L8.6894 3.03251C8.72626 3.10892 8.80122 3.15714 8.88334 3.15714C8.96546 3.15714 9.04042 3.10892 9.07727 3.03241L10.1833 0.729783L11.2894 3.03251C11.3263 3.10892 11.4012 3.15714 11.4833 3.15714C11.5655 3.15714 11.6404 3.10892 11.6773 3.03241L12.9172 0.45103H13V1.0323e-05L0.216667 0ZM1.51667 2.42736L0.567196 0.45102H2.46604L1.51667 2.42736ZM3.9 2.42736L2.95053 0.45102H4.84937L3.9 2.42736ZM6.5 2.42736L5.55053 0.45102H7.44937L6.5 2.42736ZM8.88334 2.42736L7.93386 0.45102H9.83271L8.88334 2.42736ZM11.4833 2.42736L10.5339 0.45102H12.4327L11.4833 2.42736Z" fill="#0057FF"/>
<path d="M10.7714 4.08569H11.3285V4.64284H10.7714V4.08569Z" fill="#0057FF"/>
<path d="M11.7 3.71429H12.0714V4.08572H11.7V3.71429Z" fill="#0057FF"/>
<path d="M10.0286 3.71429H10.4V4.08572H10.0286V3.71429Z" fill="#0057FF"/>
<path d="M5.90801 7.24286H2.82051C2.69853 7.24286 2.59998 7.33622 2.59998 7.45179V10.3768C2.59998 10.4923 2.69853 10.5857 2.82051 10.5857H5.90801C6.02999 10.5857 6.12855 10.4923 6.12855 10.3768V7.45179C6.12855 7.33622 6.02999 7.24286 5.90801 7.24286ZM5.68748 10.1679H3.04105V7.66072H5.68748V10.1679Z" fill="#0057FF"/>
<path d="M4.14188 9.84282C4.14515 9.84282 4.14833 9.84282 4.1516 9.84262C4.21214 9.83979 4.26863 9.81137 4.30771 9.76429L5.38563 8.4516L5.05427 8.17139L4.12745 9.30007L3.64757 8.81308L3.34277 9.1224L3.98953 9.77874C4.02976 9.82005 4.08471 9.84282 4.14188 9.84282Z" fill="white"/>
</svg>
