<svg id="Layer_1" data-name="Layer 1" xmlns="http://www.w3.org/2000/svg" viewBox="0 0 45 45"><defs><style>.cls-1{fill:#fff;}.cls-2{fill:#f9ac1b;}</style></defs><circle class="cls-1" cx="22.5" cy="22.5" r="22.5"/><path class="cls-2" d="M30.44,18.69H27.89a6.27,6.27,0,0,0-.66-1.6h3.21a1.53,1.53,0,0,0,0-3.06H16a1.53,1.53,0,0,0,0,3.06h5.9a3.12,3.12,0,0,1,2.73,1.6H16a1.53,1.53,0,0,0,0,3.06h8.63a3.12,3.12,0,0,1-2.73,1.6H16a1.52,1.52,0,0,0-1.11,2.57l8.32,8.83a1.51,1.51,0,0,0,1.11.48,1.53,1.53,0,0,0,1.11-2.58l-5.88-6.24H21.9a6.2,6.2,0,0,0,6-4.66h2.55a1.53,1.53,0,0,0,0-3.06Z"/></svg>