<svg width="43" height="43" viewBox="0 0 43 43" fill="none" xmlns="http://www.w3.org/2000/svg">
<path d="M38.3826 0H4.61737C2.0783 0 0 2.07631 0 4.61946V38.3827C0 40.9197 2.0783 43.0001 4.61737 43.0001H38.3826C40.9196 43.0001 43 40.9197 43 38.3827V4.61946C43 2.07631 40.9196 0 38.3826 0ZM14.0897 3.19226H28.9022V7.02127H14.0897V3.19226ZM39.0051 38.5751H3.99077V10.6784H39.0051V38.5751H39.0051Z" fill="black"/>
<path d="M12.1424 23.3735H7.52502V27.993H12.1424V23.3735Z" fill="black"/>
<path d="M12.1424 30.6858H7.52502V35.3032H12.1424V30.6858Z" fill="black"/>
<path d="M19.8844 16.0637H15.269V20.6811H19.8844V16.0637Z" fill="black"/>
<path d="M19.8844 23.3735H15.269V27.993H19.8844V23.3735Z" fill="black"/>
<path d="M19.8844 30.6858H15.269V35.3032H19.8844V30.6858Z" fill="black"/>
<path d="M27.6265 16.0637H23.0071V20.6811H27.6265V16.0637Z" fill="black"/>
<path d="M27.6265 23.3735H23.0071V27.993H27.6265V23.3735Z" fill="black"/>
<path d="M27.6265 30.6858H23.0071V35.3032H27.6265V30.6858Z" fill="black"/>
<path d="M35.3665 16.0637H30.7471V20.6811H35.3665V16.0637Z" fill="black"/>
<path d="M35.3665 23.3735H30.7471V27.993H35.3665V23.3735Z" fill="black"/>
</svg>
