<svg width="38" height="31" viewBox="0 0 38 31" fill="none" xmlns="http://www.w3.org/2000/svg">
<path fill-rule="evenodd" clip-rule="evenodd" d="M17.7159 0.00285712L20.5446 0.13149C21.8669 0.192949 22.8936 1.18343 22.8246 2.33399L22.6882 4.61367C23.9531 5.00672 25.1341 5.54127 26.215 6.19587L28.2634 4.58938C29.2474 3.819 30.7767 3.8876 31.6637 4.74517L33.561 6.57749C34.4464 7.43362 34.3659 8.7657 33.3819 9.53607L31.1808 11.2612C31.726 12.2397 32.1272 13.274 32.375 14.3398L35.3958 14.477C36.7165 14.5371 37.7432 15.5276 37.6742 16.6781L37.528 19.1407C37.4557 20.2927 36.3174 21.1846 34.9967 21.1231L31.9495 20.9845C31.5689 22.011 31.0431 22.9923 30.3841 23.9059L32.4029 25.8569C33.2899 26.713 33.2094 28.0437 32.2239 28.8155L30.1196 30.4648C29.134 31.2352 27.6047 31.1652 26.7193 30.3105L24.8122 28.4696C23.6678 29.0112 22.4475 29.4214 21.1819 29.6902L21.1523 30.1704C20.9437 27.5063 20.3146 25.4138 19.3619 23.7358C22.9198 23.2385 25.7173 20.6358 25.9128 17.3785C26.1378 13.6309 22.8279 10.4322 18.5192 10.2364C14.2105 10.0406 10.5359 12.9206 10.3108 16.6695C10.296 16.9039 10.296 17.1383 10.3092 17.3685C8.84064 16.8825 7.28668 16.4566 5.69495 16.0207C4.09829 15.5847 2.4392 15.1288 0.90332 14.5414C1.0873 14.2198 1.25157 13.8882 1.39283 13.5409C1.66551 13.3637 1.91848 13.1736 2.15174 12.9663L3.24411 13.0163C3.69142 11.7732 4.35212 10.596 5.2038 9.52464L3.82232 8.19113C2.93529 7.33643 3.01578 6.00292 3.99973 5.23255L6.10562 3.58174C7.08792 2.81137 8.61888 2.8814 9.50592 3.73753L10.9974 5.17966C12.2656 4.63797 13.6323 4.25064 15.0614 4.03625L15.1846 1.98525C15.2552 0.836119 16.3936 -0.0571721 17.7159 0.00285712Z" fill="#0057FF"/>
</svg>
