<svg width="12" height="14" viewBox="0 0 12 14" fill="none" xmlns="http://www.w3.org/2000/svg">
<path d="M1.33333 14C0.966668 14 0.652668 13.8628 0.391334 13.5884C0.130001 13.314 -0.000443312 12.9845 1.13186e-06 12.6V2.8C1.13186e-06 2.415 0.130668 2.0853 0.392001 1.8109C0.653334 1.5365 0.967112 1.39953 1.33333 1.4H2V0H3.33333V1.4H8.66667V0H10V1.4H10.6667C11.0333 1.4 11.3473 1.5372 11.6087 1.8116C11.87 2.086 12.0004 2.41547 12 2.8V12.6C12 12.985 11.8693 13.3147 11.608 13.5891C11.3467 13.8635 11.0329 14.0005 10.6667 14H1.33333ZM1.33333 12.6H10.6667V5.6H1.33333V12.6ZM1.33333 4.2H10.6667V2.8H1.33333V4.2Z" fill="#05389A"/>
<circle cx="3" cy="9" r="1" fill="#FF0000"/>
<circle cx="6" cy="9" r="1" fill="#FF0000"/>
<circle cx="9" cy="9" r="1" fill="#FF0000"/>
</svg>
