<svg width="108" height="123" viewBox="0 0 108 123" fill="none" xmlns="http://www.w3.org/2000/svg">
<g clip-path="url(#clip0_307_4)">
<path fill-rule="evenodd" clip-rule="evenodd" d="M107 65.8C108.54 96.87 97.0601 115.22 76.7201 122.88C57.0801 115.71 45.4701 98.15 46.3301 65.32C56.6601 65.86 66.7901 63.64 76.6101 56.01C85.3001 61.53 96.4101 66.76 107 65.8ZM60.1801 86.39L66.0001 86.31H66.1001L66.5401 86.43H66.6501C67.2491 86.7694 67.8298 87.1399 68.3901 87.54C68.9501 87.93 69.4901 88.35 70.0101 88.78C70.5301 89.21 70.7601 89.44 71.1201 89.78L71.8501 90.51C72.8034 88.9967 73.8034 87.53 74.8501 86.11C75.9801 84.53 77.1501 83.02 78.3301 81.59C79.5101 80.16 80.9601 78.59 82.3301 77.1C83.7001 75.61 85.1101 74.33 86.5501 73.03C86.5828 73.001 86.6199 72.9773 86.6601 72.96L87.2301 72.74H87.3701H93.7301C93.8291 72.74 93.9243 72.7786 93.9953 72.8478C94.0663 72.9169 94.1075 73.011 94.1101 73.11C94.1077 73.2104 94.0686 73.3065 94.0001 73.38L92.7201 74.79C90.7601 76.97 88.8934 79.1833 87.1201 81.43C85.3201 83.69 83.6201 86 82.0001 88.33C80.3801 90.66 78.8801 93.01 77.4401 95.41C76.0001 97.81 74.6201 100.27 73.3401 102.75L72.5301 104.3C72.4833 104.386 72.4053 104.45 72.3121 104.48C72.219 104.51 72.118 104.503 72.0301 104.46C71.9522 104.424 71.8912 104.36 71.8601 104.28L71.1301 102.71C70.4701 101.285 69.7289 99.8997 68.9101 98.56C68.1107 97.2559 67.2254 96.0065 66.2601 94.82C64.3318 92.4205 62.0608 90.3179 59.5201 88.58C59.4537 88.5328 59.4043 88.4655 59.3791 88.3881C59.3539 88.3107 59.3543 88.2272 59.3801 88.15L59.8401 86.61C59.8644 86.5292 59.915 86.4588 59.9838 86.4099C60.0526 86.361 60.1357 86.3364 60.2201 86.34L60.1801 86.39Z" fill="#072B75"/>
<path fill-rule="evenodd" clip-rule="evenodd" d="M81.5801 17.5H90.7001C92.4258 17.5 94.0812 18.1842 95.3033 19.4026C96.5255 20.621 97.2148 22.2743 97.2201 24L96.8901 49.52L91.6401 48.62V24C91.6423 23.877 91.6174 23.7551 91.5673 23.6428C91.5172 23.5305 91.443 23.4305 91.3501 23.35C91.2656 23.2627 91.1646 23.1931 91.0531 23.145C90.9415 23.0969 90.8215 23.0714 90.7001 23.07H81.5801V45.26C79.7501 44.26 77.9001 43.1 76.0301 41.92V6.52C76.0315 6.39808 76.0074 6.27722 75.9592 6.16524C75.9109 6.05326 75.8397 5.95268 75.7501 5.87C75.5738 5.69464 75.3385 5.59125 75.0901 5.58H6.52007C6.3975 5.58041 6.27637 5.60641 6.16444 5.65635C6.05251 5.70629 5.95224 5.77906 5.87007 5.87C5.77961 5.95256 5.70716 6.0529 5.65726 6.16475C5.60736 6.27659 5.58108 6.39753 5.58007 6.52V84.52C5.57907 84.6442 5.6044 84.7673 5.65438 84.8811C5.70437 84.9948 5.77788 85.0967 5.87007 85.18C5.95456 85.2673 6.0555 85.3369 6.16707 85.385C6.27863 85.4331 6.3986 85.4586 6.52007 85.46H36.0001C36.3801 87.3733 36.8067 89.2333 37.2801 91.04H21.2101V101.41C21.2079 101.533 21.2327 101.655 21.2828 101.767C21.3329 101.88 21.4071 101.979 21.5001 102.06C21.5826 102.15 21.683 102.223 21.7948 102.273C21.9067 102.323 22.0276 102.349 22.1501 102.35H41.2001C42.0301 104.29 42.9501 106.15 43.9201 107.93H22.1501C20.4209 107.93 18.7625 107.243 17.5397 106.02C16.317 104.798 15.6301 103.139 15.6301 101.41V91.08H6.52007C4.79075 91.0747 3.13392 90.3847 1.91204 89.161C0.690161 87.9372 0.00270517 86.2793 6.90248e-05 84.55V6.55C-0.00388227 5.69126 0.161846 4.8402 0.487737 4.04569C0.813629 3.25118 1.29326 2.52888 1.89909 1.92026C2.50493 1.31164 3.22502 0.828695 4.01802 0.49916C4.81103 0.169625 5.66132 -9.09009e-06 6.52007 3.6534e-10L75.0601 3.6534e-10C76.7893 3.65341e-10 78.4477 0.686927 79.6704 1.90966C80.8931 3.1324 81.5801 4.79079 81.5801 6.52V17.52V17.5ZM19.3501 58.59C18.5889 58.59 17.8589 58.2876 17.3207 57.7494C16.7824 57.2112 16.4801 56.4812 16.4801 55.72C16.4801 54.9588 16.7824 54.2288 17.3207 53.6906C17.8589 53.1524 18.5889 52.85 19.3501 52.85H40.5001C41.2612 52.85 41.9912 53.1524 42.5295 53.6906C43.0677 54.2288 43.3701 54.9588 43.3701 55.72C43.3701 56.4812 43.0677 57.2112 42.5295 57.7494C41.9912 58.2876 41.2612 58.59 40.5001 58.59H19.3501ZM19.3501 41.84C18.5889 41.84 17.8589 41.5376 17.3207 40.9994C16.7824 40.4612 16.4801 39.7312 16.4801 38.97C16.4801 38.2088 16.7824 37.4788 17.3207 36.9406C17.8589 36.4024 18.5889 36.1 19.3501 36.1H62.6501C63.4112 36.1 64.1412 36.4024 64.6795 36.9406C65.2177 37.4788 65.5201 38.2088 65.5201 38.97C65.5201 39.7312 65.2177 40.4612 64.6795 40.9994C64.1412 41.5376 63.4112 41.84 62.6501 41.84H19.3501ZM19.3501 25.09C18.6195 25.0468 17.933 24.7262 17.431 24.1936C16.929 23.6611 16.6494 22.9569 16.6494 22.225C16.6494 21.4931 16.929 20.7889 17.431 20.2564C17.933 19.7238 18.6195 19.4032 19.3501 19.36H62.6601C63.3907 19.4032 64.0771 19.7238 64.5791 20.2564C65.0811 20.7889 65.3607 21.4931 65.3607 22.225C65.3607 22.9569 65.0811 23.6611 64.5791 24.1936C64.0771 24.7262 63.3907 25.0468 62.6601 25.09H19.3501Z" fill="black"/>
</g>
<defs>
<clipPath id="clip0_307_4">
<rect width="107.12" height="122.88" fill="white"/>
</clipPath>
</defs>
</svg>
