<svg width="25" height="25" viewBox="0 0 25 25" fill="none" xmlns="http://www.w3.org/2000/svg">
<path d="M12.4964 1.23021e-05C15.3885 -0.000814392 18.1914 1.00124 20.4275 2.83542C22.6636 4.66961 24.1945 7.22241 24.7593 10.0588C25.3241 12.8953 24.8879 15.8398 23.525 18.3906C22.1621 20.9414 19.9568 22.9408 17.285 24.0479C14.6132 25.155 11.6402 25.3014 8.87252 24.4621C6.10487 23.6228 3.71389 21.8498 2.107 19.4452C0.500108 17.0405 -0.223247 14.1531 0.0601966 11.2749C0.34364 8.39675 1.61634 5.7059 3.66143 3.66093C4.82005 2.49844 6.19711 1.57653 7.71337 0.948249C9.22962 0.319965 10.8552 -0.00229495 12.4964 1.23021e-05ZM4.67835 19.889C5.34748 19.5412 6.13458 19.4557 6.91557 19.3724C8.31689 19.2198 9.7182 19.0693 10.247 17.0395C10.2492 17.0274 10.2534 17.0158 10.2592 17.005C9.61448 16.4497 9.07958 15.9697 8.97585 14.8328H8.91687C8.78092 14.8319 8.64736 14.797 8.52841 14.7311C8.33394 14.6087 8.18415 14.4268 8.1013 14.2125C8.0002 13.9611 7.9431 13.6941 7.93249 13.4234C7.93249 13.34 7.93249 13.1813 7.93249 13.0308C7.93249 12.8803 7.93249 12.7685 7.95283 12.6973C7.95676 12.6757 7.96289 12.6546 7.97113 12.6342C8.10943 12.2498 8.32095 12.1237 8.60162 12.1319L8.41654 12.0098C8.31689 10.7611 8.61993 8.59706 7.25319 8.18623C9.81786 5.0175 12.773 3.30501 14.994 6.11374C17.6664 6.25408 18.7403 10.5028 16.6068 12.2905L16.5946 12.3963C16.6754 12.3715 16.7586 12.3551 16.8427 12.3475C16.9928 12.3328 17.144 12.3617 17.278 12.4309C17.3506 12.4687 17.4149 12.5208 17.467 12.5841C17.519 12.6473 17.5578 12.7204 17.581 12.799C17.6371 13.0075 17.6321 13.2277 17.5668 13.4335C17.4692 13.7406 17.3451 14.0945 17.2292 14.3935C17.1952 14.5221 17.1245 14.638 17.0258 14.7271C16.895 14.8204 16.7333 14.8597 16.5743 14.8369H16.4807C16.4604 15.8925 15.9438 16.3765 15.2604 17.0111L15.1567 17.1087C15.7668 18.8192 17.0217 19.0307 18.2766 19.2422C19.0128 19.3642 19.7471 19.4883 20.3735 19.8523C21.8084 18.3178 22.7629 16.3969 23.1196 14.3265C23.4762 12.2561 23.2194 10.1266 22.3807 8.20033C21.542 6.27409 20.1581 4.63529 18.3995 3.48586C16.6409 2.33644 14.5845 1.7266 12.4836 1.7315C10.3827 1.7364 8.32914 2.35582 6.57593 3.51344C4.82273 4.67106 3.44649 6.31629 2.61679 8.24643C1.7871 10.1766 1.54019 12.3073 1.9065 14.376C2.27281 16.4447 3.23634 18.3611 4.67835 19.889Z" fill="#05389A"/>
<circle cx="12.5" cy="12.5" r="11.5" stroke="#FF0000" stroke-width="2"/>
</svg>
