<svg width="36" height="40" viewBox="0 0 36 40" fill="none" xmlns="http://www.w3.org/2000/svg">
<path fill-rule="evenodd" clip-rule="evenodd" d="M0 36.4364C0 37.2611 0.336928 38.0087 0.879223 38.551C1.42152 39.0933 2.16918 39.4302 2.99385 39.4302C12.2899 39.4302 23.7101 39.4302 33.0061 39.4302C33.8308 39.4302 34.5785 39.0933 35.1208 38.551C35.6631 38.0087 36 37.2611 36 36.4364C35.9968 -2.60239 0 -3.65168 0 36.4364ZM3.32757 37.6622C2.89758 37.6622 2.50931 37.4857 2.22373 37.2033C1.94135 36.9209 1.76486 36.5326 1.76486 36.0995C1.76486 -0.433214 34.2255 -0.433214 34.2255 36.0995C34.2255 36.5294 34.049 36.9177 33.7666 37.2033C33.4843 37.4857 33.0928 37.6622 32.6628 37.6622C23.4823 37.6622 12.5113 37.6622 3.32757 37.6622Z" fill="white"/>
<path d="M18.3 0C20.6039 0 22.6864 0.933773 24.1946 2.44193C25.7028 3.95008 26.6365 6.03583 26.6365 8.33657C26.6365 10.6373 25.7028 12.7231 24.1946 14.2312C22.6864 15.7394 20.6007 16.6731 18.3 16.6731C15.9992 16.6731 13.9135 15.7394 12.4053 14.2312C10.8972 12.7231 9.96338 10.6373 9.96338 8.33657C9.96338 6.03583 10.8972 3.95008 12.4053 2.44193C13.9135 0.933773 15.9992 0 18.3 0Z" fill="#05389A"/>
<path fill-rule="evenodd" clip-rule="evenodd" d="M18.3 1.69427C21.9677 1.69427 24.9423 4.66887 24.9423 8.33658C24.9423 12.0043 21.9677 14.9789 18.3 14.9789C14.6323 14.9789 11.6577 12.0043 11.6577 8.33658C11.6577 4.66887 14.6323 1.69427 18.3 1.69427Z" fill="white"/>
<path fill-rule="evenodd" clip-rule="evenodd" d="M15.6079 4.94165H19.3494C20.1645 4.94165 20.7741 5.13418 21.1817 5.52245C21.586 5.91072 21.7881 6.46264 21.7881 7.17821C21.7881 7.91304 21.5667 8.49063 21.1239 8.90457C20.6811 9.31851 20.004 9.52709 19.0991 9.52709H17.8669V12.2225H15.6079V4.94165ZM17.8669 8.05423H18.4221C18.8585 8.05423 19.1665 7.97721 19.343 7.8264C19.5195 7.67558 19.6061 7.48305 19.6061 7.24881C19.6061 7.02098 19.5291 6.82524 19.3751 6.66801C19.2243 6.50757 18.9323 6.42734 18.5119 6.42734H17.8669V8.05423Z" fill="#05389A"/>
<path fill-rule="evenodd" clip-rule="evenodd" d="M27.5223 25.3466V35.4834H25.1093V34.0683H10.8877V35.4802H8.47464V25.3466H7.64355V23.7583H9.67154L10.8011 20.2382C11.1348 19.2017 11.6899 18.2583 12.7809 18.2583H23.6332C24.721 18.2583 25.3499 19.1824 25.6131 20.2382L26.4859 23.7583H28.3502V25.3466H27.5223ZM14.3853 30.8851H21.509V32.5633H14.3853V30.8851ZM9.28327 26.9735C11.0995 27.0281 12.2097 27.7918 12.4953 29.3769H9.28327V26.9735ZM26.4891 26.9735C24.6761 27.0281 23.5626 27.7918 23.2802 29.3769H26.4891V26.9735ZM10.5411 23.7583H25.4623L24.8205 20.8093C24.644 20.0007 24.1402 19.3012 23.3123 19.3012H12.9927C12.1616 19.3012 11.738 20.02 11.4845 20.8093L10.5411 23.7583Z" fill="white"/>
</svg>
