<svg width="30" height="26" viewBox="0 0 30 26" fill="none" xmlns="http://www.w3.org/2000/svg">
<path d="M3.54496 13.1879C3.50302 10.6948 4.19098 8.24208 5.52738 6.12026C6.91867 3.90667 8.97477 2.16917 11.4136 1.14612C12.2867 0.777563 13.1943 0.493103 14.1236 0.296756C17.0832 -0.358559 20.184 0.0308932 22.8793 1.39648C25.5747 2.76208 27.6918 5.01617 28.8575 7.76156C29.2299 8.61492 29.5161 9.50202 29.7119 10.4101C30.1816 12.554 30.0714 14.7809 29.3921 16.8701C28.7026 18.9669 27.4693 20.8523 25.813 22.3418C24.2377 23.8047 22.3384 24.8905 20.2637 25.5144C18.2796 26.093 16.1757 26.154 14.1602 25.6914C13.501 25.5411 12.8564 25.3346 12.2339 25.0742C11.5916 24.808 10.9741 24.4878 10.3882 24.1171C10.1807 23.9851 10.0352 23.7778 9.98366 23.5406C9.93215 23.3035 9.97888 23.056 10.1136 22.8527C10.2482 22.6493 10.4598 22.5067 10.7018 22.4562C10.9438 22.4057 11.1963 22.4515 11.4038 22.5835C11.8988 22.9012 12.4217 23.175 12.9663 23.4018C13.4887 23.6197 14.0295 23.7927 14.5826 23.9185C16.2853 24.3099 18.0629 24.2579 19.7388 23.7678C21.5394 23.2291 23.1881 22.289 24.5557 21.0211C25.9746 19.7434 27.0312 18.1268 27.6221 16.3293C28.2034 14.541 28.296 12.6345 27.8907 10.8001C27.7232 10.0076 27.4779 9.23277 27.1582 8.4865C26.1637 6.12547 24.3467 4.18676 22.0305 3.01527C19.7144 1.84378 17.0493 1.51549 14.5093 2.08879C13.699 2.25971 12.9075 2.50731 12.146 2.82809C10.0612 3.70241 8.3036 5.18754 7.11429 7.07968C5.93777 8.94552 5.34372 11.1078 5.40531 13.3003L7.54154 10.9748C7.62377 10.8849 7.72327 10.8118 7.83433 10.7596C7.9454 10.7074 8.06587 10.6772 8.18885 10.6707C8.31184 10.6641 8.43494 10.6814 8.55113 10.7214C8.66731 10.7615 8.77431 10.8236 8.866 10.9042C8.9577 10.9848 9.03229 11.0823 9.08554 11.1911C9.13878 11.3 9.16963 11.418 9.17632 11.5386C9.18301 11.6591 9.1654 11.7797 9.12452 11.8936C9.08363 12.0074 9.02026 12.1123 8.93802 12.2022L5.34427 16.1188C5.17829 16.2986 4.94633 16.4067 4.69922 16.4192C4.4521 16.4318 4.20999 16.3478 4.02591 16.1858L0.285677 12.6472C0.107291 12.479 0.00437337 12.2483 -0.000434081 12.0058C-0.00524153 11.7633 0.0884547 11.5288 0.260043 11.354C0.43163 11.1792 0.667054 11.0783 0.914523 11.0736C1.16199 11.0689 1.40124 11.1607 1.57962 11.3289L3.54496 13.1879ZM15.3101 7.86922C15.3101 7.62619 15.4086 7.39311 15.584 7.22126C15.7593 7.04941 15.9972 6.95287 16.2452 6.95287C16.4931 6.95287 16.731 7.04941 16.9063 7.22126C17.0817 7.39311 17.1802 7.62619 17.1802 7.86922V13.1089L21.3965 15.4034C21.6009 15.5269 21.7489 15.7229 21.8096 15.9505C21.8702 16.1782 21.839 16.4201 21.7222 16.6257C21.6055 16.8314 21.4123 16.985 21.1829 17.0546C20.9536 17.1241 20.7056 17.1043 20.4908 16.9992L15.8692 14.4799C15.7024 14.4081 15.5607 14.2902 15.4614 14.1406C15.362 13.991 15.3095 13.8162 15.3101 13.6377V7.86922Z" fill="black"/>
</svg>
