<svg width="39" height="37" viewBox="0 0 39 37" fill="none" xmlns="http://www.w3.org/2000/svg">
<path d="M35.9722 5.61838C35.9722 2.46651 33.3434 0 30.1615 0H5.81062C2.62889 0 0 2.46657 0 5.61838V31.5186C0 34.5334 2.62883 37 5.81062 37H16.6028C14.6654 36.3148 13.5587 34.9447 13.4203 32.6144C13.1437 27.4068 16.4641 22.7477 19.0931 20.5555C19.5081 20.1439 19.7845 19.8704 20.1996 19.5959C19.646 18.3627 19.2309 16.9922 19.2309 15.4848C19.2309 10.6883 23.1049 6.71477 28.0854 6.71477C31.5443 6.71477 34.4501 8.63354 35.9722 11.3736V5.61838ZM10.2385 23.2959H6.08804C5.67276 23.2959 5.39565 23.0221 5.39565 22.6113C5.39565 22.1995 5.67282 21.926 6.08804 21.926H10.2385C10.6535 21.926 10.9298 22.1995 10.9298 22.6113C10.9298 23.0221 10.6535 23.2959 10.2385 23.2959ZM14.3889 17.8147H6.08798C5.81056 17.8147 5.39552 17.5407 5.39552 17.1294C5.39552 16.719 5.67269 16.4447 6.08798 16.4447H14.3889C14.804 16.4447 15.0804 16.719 15.0804 17.1294C15.0805 17.5406 14.804 17.8147 14.3889 17.8147ZM14.3889 12.3332H6.08798C5.81056 12.3332 5.39552 12.059 5.39552 11.6478C5.39552 11.2367 5.81056 10.9626 6.08798 10.9626H14.3889C14.804 10.9626 15.0804 11.2368 15.0804 11.6478C15.0805 12.059 14.804 12.3332 14.3889 12.3332Z" fill="white"/>
<path d="M20.764 22.7191C18.7415 24.3421 16.3146 27.8579 16.4497 31.9155C16.584 35.9722 20.8988 35.9722 27.2358 35.9722C33.5731 35.9722 37.888 35.9722 38.0226 31.9155C38.1575 27.8579 35.5955 24.4767 33.7082 22.7191C32.2246 21.3667 31.011 21.0966 30.6066 21.0966C32.3597 20.1495 33.4379 18.256 33.4379 16.0928C33.4379 12.8473 30.8769 10.2778 27.6401 10.2778C24.4044 10.2778 21.8431 12.8473 21.9775 16.0928C21.9775 18.256 23.0565 20.0151 24.8086 21.0966H24.135C24.1349 21.0966 22.7864 21.0966 20.764 22.7191Z" fill="#0057FF"/>
</svg>
