<svg width="45" height="37" viewBox="0 0 45 37" fill="none" xmlns="http://www.w3.org/2000/svg">
<path d="M19.4859 15.9449C21.4084 15.9449 22.9669 14.3864 22.9669 12.4639C22.9669 10.5414 21.4084 8.98291 19.4859 8.98291C17.5634 8.98291 16.0049 10.5414 16.0049 12.4639C16.0049 14.3864 17.5634 15.9449 19.4859 15.9449Z" fill="#05389A"/>
<path d="M15.1547 17.258C15.153 17.258 15.1513 17.258 15.1496 17.258L10.4385 17.2717C10.3564 16.576 9.64146 10.519 9.55366 9.7758C9.40056 8.47828 8.2179 7.55411 6.92231 7.71838L4.77603 7.99048C3.6346 8.13515 2.76879 9.08261 2.72256 10.229L4.94188 9.42081L0.654236 12.4978C0.290634 12.7587 0.073105 13.1774 0.0687984 13.625C0.0551754 15.0186 0.0135153 19.2875 6.80988e-05 20.6631C-0.00749047 21.4387 0.615125 22.0736 1.39076 22.0812C1.39542 22.0812 1.40007 22.0812 1.40482 22.0812C2.17404 22.0812 2.80131 21.4614 2.80887 20.6906C2.81608 19.9546 2.86327 15.1229 2.87066 14.3646L7.26262 11.2127L3.42384 15.6267L3.82321 18.5455C3.94072 19.4041 4.52589 20.1458 5.37078 20.4439C5.37078 21.0575 5.37078 33.977 5.37078 35.052C5.37078 35.9828 6.12532 36.7373 7.05608 36.7373C7.98684 36.7373 8.74138 35.9828 8.74138 35.052C8.74138 34.5812 8.74138 21.1161 8.74138 20.6473L12.6725 20.6358L10.3974 26.3853C10.055 27.2508 10.4789 28.23 11.3443 28.5726C12.2101 28.9152 13.1892 28.4907 13.5316 27.6256L16.722 19.5634C17.1589 18.4588 16.3436 17.258 15.1547 17.258Z" fill="white"/>
<path d="M7.10769 6.96197C9.03019 6.96197 10.5887 5.40348 10.5887 3.48099C10.5887 1.55849 9.03019 0 7.10769 0C5.1852 0 3.62671 1.55849 3.62671 3.48099C3.62671 5.40348 5.1852 6.96197 7.10769 6.96197Z" fill="white"/>
<path d="M37.8924 6.96197C39.8149 6.96197 41.3733 5.40348 41.3733 3.48099C41.3733 1.55849 39.8149 0 37.8924 0C35.9699 0 34.4114 1.55849 34.4114 3.48099C34.4114 5.40348 35.9699 6.96197 37.8924 6.96197Z" fill="white"/>
<path d="M44.9309 13.625C44.9265 13.1774 44.709 12.7587 44.3454 12.4978L40.0579 9.42081L42.2772 10.2291C42.2578 9.74759 42.0914 9.27984 41.794 8.89224C41.469 8.46861 41.0108 8.17242 40.4981 8.04418L38.0775 7.71838C37.4552 7.63954 36.8271 7.81242 36.3331 8.19878C35.839 8.58515 35.5196 9.15283 35.4461 9.7758L35.3035 10.9831L33.3874 12.4927L27.99 13.0271C27.2182 13.1036 26.6544 13.7913 26.7308 14.5632C26.8074 15.3357 27.4955 15.8989 28.2669 15.8224L34.0726 15.2474C34.3803 15.2169 34.6162 15.1004 34.8381 14.9256L34.2656 19.7758L30.1493 23.7948C29.8971 24.0411 29.7283 24.3604 29.667 24.7077L28.1855 33.1013C28.0237 34.0178 28.6356 34.892 29.5522 35.0539C30.4669 35.2156 31.3428 34.6051 31.5047 33.6872L32.892 25.8277L36.4696 22.3347V35.0521C36.4696 35.9829 37.2241 36.7374 38.1549 36.7374C39.0856 36.7374 39.8402 35.9829 39.8402 35.0521V20.3577C40.5739 20.0156 41.0695 19.3288 41.1766 18.5455L41.576 15.6267L37.7374 11.2128L42.1293 14.3646C42.1367 15.1218 42.184 19.9545 42.1911 20.6906C42.1985 21.4616 42.8259 22.0814 43.5951 22.0813C43.5997 22.0813 43.6044 22.0813 43.6092 22.0813C44.3848 22.0738 45.0073 21.4388 44.9999 20.6632C44.968 17.4253 44.9625 16.8614 44.9309 13.625Z" fill="white"/>
</svg>
