<svg width="30" height="16" viewBox="0 0 30 16" fill="none" xmlns="http://www.w3.org/2000/svg">
<path d="M21.9846 7.99998L28.6 4.14101L28.6 11.8589L21.9846 7.99998Z" stroke="#FF0000" stroke-width="2"/>
<path d="M4.13522 0H17.4648C18.5992 0 19.6332 0.449825 20.3837 1.17534C21.1343 1.89799 21.6 2.89756 21.6 3.99745V12.0021C21.6 13.0996 21.1347 14.0987 20.3837 14.8247C19.6366 15.5498 18.6026 16 17.4648 16H4.13522C2.99742 16 1.96341 15.5498 1.21458 14.8259L1.16817 14.7778C0.445922 14.0563 0 13.0763 0 12.0021V3.99745C0 2.90082 0.465328 1.90248 1.21458 1.17697L1.21753 1.17411C1.96973 0.44901 3.00164 0 4.13522 0ZM17.4648 1.58724H4.13522C3.44798 1.58724 2.82445 1.85721 2.37473 2.29276L2.37178 2.29562C1.92122 2.73035 1.64194 3.33311 1.64194 3.99745V12.0021C1.64194 12.6498 1.90688 13.2382 2.33677 13.6701L2.37473 13.7044C2.82656 14.1412 3.45009 14.4128 4.13522 14.4128H17.4648C18.1499 14.4128 18.7734 14.1412 19.2253 13.7044C19.6784 13.2696 19.9581 12.6669 19.9581 12.0021V3.99745C19.9581 3.33515 19.6771 2.73239 19.2253 2.29562C18.7755 1.85721 18.152 1.58724 17.4648 1.58724Z" fill="white"/>
</svg>
