<svg width="53" height="53" viewBox="0 0 53 53" fill="none" xmlns="http://www.w3.org/2000/svg">
<path d="M26.5002 -4.4287e-06C32.6335 -0.00175759 38.5776 2.12329 43.3196 6.01303C48.0617 9.90276 51.3082 15.3165 52.506 21.3317C53.7038 27.3468 52.7787 33.5912 49.8884 39.0008C46.9981 44.4103 42.3214 48.6503 36.6554 50.9981C30.9893 53.3459 24.6843 53.6564 18.815 51.8765C12.9457 50.0966 7.87513 46.3366 4.46741 41.2371C1.05969 36.1377 -0.474323 30.0144 0.126774 23.9106C0.72787 17.8069 3.42688 12.1004 7.76388 7.76367C10.221 5.29839 13.1413 3.34331 16.3568 2.01091C19.5723 0.678516 23.0196 -0.00489741 26.5002 -4.4287e-06ZM9.92045 42.1783C11.3395 41.4408 13.0087 41.2596 14.6649 41.0828C17.6367 40.7593 20.6084 40.4401 21.7299 36.1356C21.7346 36.1099 21.7433 36.0852 21.7557 36.0623C20.3885 34.8848 19.2541 33.8669 19.0341 31.4558H18.9091C18.6208 31.4539 18.3375 31.3797 18.0852 31.2401C17.6728 30.9805 17.3552 30.5948 17.1795 30.1403C16.9651 29.6071 16.844 29.041 16.8215 28.4668C16.8215 28.29 16.8215 27.9535 16.8215 27.6344C16.8215 27.3152 16.8215 27.078 16.8646 26.927C16.873 26.8812 16.886 26.8364 16.9034 26.7933C17.1967 25.9781 17.6453 25.7107 18.2405 25.7279L17.848 25.4692C17.6367 22.8209 18.2793 18.2317 15.3809 17.3604C20.8198 10.6405 27.0868 7.00887 31.7968 12.9653C37.4642 13.2629 39.7416 22.2731 35.2171 26.0644L35.1912 26.2887C35.3625 26.236 35.5389 26.2013 35.7174 26.1851C36.0357 26.154 36.3562 26.2154 36.6404 26.362C36.7945 26.4423 36.9308 26.5528 37.0412 26.6869C37.1516 26.8211 37.2339 26.976 37.2831 27.1427C37.4019 27.5849 37.3915 28.0519 37.2529 28.4884C37.0459 29.1396 36.7828 29.8901 36.5369 30.5242C36.4648 30.7968 36.3149 31.0426 36.1056 31.2315C35.8283 31.4295 35.4853 31.5129 35.1481 31.4644H34.9497C34.9065 33.703 33.811 34.7295 32.3618 36.0752L32.1418 36.2822C33.4358 39.9096 36.097 40.3582 38.7582 40.8067C40.3195 41.0655 41.8766 41.3286 43.205 42.1007C46.248 38.8463 48.2723 34.7728 49.0287 30.3821C49.785 25.9914 49.2403 21.4753 47.4617 17.3903C45.6831 13.3054 42.7483 9.82999 39.0189 7.39241C35.2895 4.95483 30.9284 3.66156 26.473 3.67196C22.0177 3.68235 17.6627 4.99595 13.9447 7.4509C10.2266 9.90584 7.30807 13.3949 5.54853 17.4881C3.789 21.5813 3.26539 26.0999 4.04222 30.487C4.81906 34.8741 6.86239 38.9381 9.92045 42.1783Z" fill="white"/>
</svg>
