<svg width="19" height="26" viewBox="0 0 19 26" fill="none" xmlns="http://www.w3.org/2000/svg">
<g clip-path="url(#clip0_0_25)">
<path d="M1.75606 9.67087H2.33866V7.82391C2.33866 5.67861 3.1413 3.72586 4.43474 2.30801C5.73322 0.883805 7.52632 0 9.5 0C11.4739 0 13.2668 0.883805 14.5657 2.3078C15.8589 3.72565 16.6615 5.67861 16.6615 7.8237V9.67066H17.2441C17.7275 9.67066 18.1668 9.87801 18.4846 10.2123C18.8025 10.5466 19 11.0081 19 11.5161V24.1543C19 24.6623 18.8027 25.124 18.4846 25.4581C18.1666 25.7922 17.7275 25.9998 17.2441 25.9998H1.75606C1.2725 25.9998 0.833439 25.7924 0.515363 25.4581C0.197288 25.1238 0 24.6628 0 24.1545V11.5163C0 11.0083 0.197489 10.5466 0.515363 10.2125C0.833439 9.87844 1.2725 9.67087 1.75606 9.67087ZM3.57392 9.67087H15.4263V7.82391C15.4263 6.02308 14.7567 4.38856 13.6777 3.20578C12.6043 2.02892 11.1256 1.29852 9.5 1.29852C7.87439 1.29852 6.39574 2.02892 5.32234 3.20557C4.24349 4.38835 3.57372 6.02287 3.57372 7.8237L3.57392 9.67087ZM17.2441 10.9694H1.75606C1.61353 10.9694 1.48368 11.0312 1.38907 11.1306C1.29445 11.2301 1.23566 11.3667 1.23566 11.5163V24.1545C1.23566 24.3041 1.29445 24.4408 1.38907 24.54C1.48368 24.6397 1.61373 24.7013 1.75606 24.7013H17.2443C17.3869 24.7013 17.5169 24.6397 17.6113 24.54C17.706 24.4406 17.7647 24.3041 17.7647 24.1545V11.5163C17.7647 11.3667 17.706 11.2301 17.6113 11.1306C17.5165 11.0312 17.3867 10.9694 17.2441 10.9694Z" fill="black"/>
<path d="M8.89726 18.0894L8.05375 20.4124H11.0255L10.2436 18.0575C10.7399 17.7887 11.0791 17.245 11.0791 16.618C11.0791 15.7245 10.3896 15 9.53965 15C8.6895 15 8 15.7247 8 16.618C7.9998 17.2708 8.3676 17.8334 8.89726 18.0894Z" fill="#FF0000"/>
</g>
<defs>
<clipPath id="clip0_0_25">
<rect width="19" height="26" fill="white"/>
</clipPath>
</defs>
</svg>
