<svg width="16" height="19" viewBox="0 0 16 19" fill="none" xmlns="http://www.w3.org/2000/svg">
<path d="M2.63948 13.6489L2.23211 15.9938C2.22539 16.0261 2.2129 16.0554 2.19368 16.0778C2.0486 16.2683 1.95733 16.4314 1.93043 16.5632C1.91121 16.6609 1.93043 16.739 1.9948 16.8005L3.58585 18.4178C3.68673 18.5165 3.80491 18.579 3.94518 18.6044C4.0989 18.6337 4.27761 18.6171 4.48321 18.5604C4.4861 18.5604 4.4909 18.5585 4.49474 18.5585C4.57257 18.537 4.67537 18.5116 4.77241 18.4872C5.19899 18.3817 5.57082 18.2889 5.91669 17.9705L6.36057 17.4998C6.36538 17.492 6.3721 17.4851 6.37787 17.4783C6.38459 17.4715 6.42783 17.4275 6.48644 17.3709C6.79004 17.0691 7.16571 16.697 6.93704 16.3708L6.7593 16.1901C6.67283 16.2741 6.58155 16.3571 6.49412 16.4372C6.41438 16.5085 6.33944 16.5749 6.27026 16.6452C6.19724 16.7195 6.07811 16.7195 6.00509 16.6452C5.93207 16.57 5.93207 16.4499 6.00509 16.3757C6.0733 16.3054 6.15881 16.2292 6.24624 16.1501C6.54697 15.8805 6.89188 15.5719 6.70645 15.3024L6.53063 15.1236C6.52102 15.1139 6.51334 15.1022 6.50469 15.0914C6.40381 15.1969 6.29236 15.2975 6.18379 15.3952C6.10405 15.4664 6.02911 15.5329 5.95993 15.6032C5.88595 15.6784 5.76777 15.6784 5.69476 15.6032C5.62078 15.5289 5.62078 15.4078 5.69476 15.3336C5.76297 15.2643 5.84848 15.1871 5.93591 15.108C6.23663 14.8385 6.58155 14.5299 6.39612 14.2603L6.2203 14.0816C6.20781 14.0689 6.1982 14.0552 6.18956 14.0406L5.67362 14.565C5.59964 14.6392 5.48146 14.6392 5.40844 14.565C5.33542 14.4898 5.33542 14.3697 5.40844 14.2955L6.37595 13.312C6.60749 13.0766 6.66034 12.8315 6.59981 12.6459C6.57771 12.5776 6.54024 12.518 6.49412 12.4701C6.4701 12.4457 6.4432 12.4242 6.41342 12.4057H6.41246C6.39804 12.4125 6.38748 12.3979 6.37402 12.3842C6.35769 12.3764 6.33944 12.3686 6.32214 12.3627C6.16169 12.309 5.9532 12.3471 5.74183 12.5278C5.73895 12.5307 5.73607 12.5336 5.73319 12.5356C5.71013 12.5551 5.68707 12.5766 5.66401 12.6L3.65599 14.6441C3.58297 14.7183 3.46383 14.7183 3.39081 14.6441C3.32356 14.5758 3.31779 14.4703 3.37352 14.3951L2.63948 13.6489ZM3.90963 13.8472L3.974 13.7818L5.29891 12.435C5.16152 12.3705 5.03374 12.2797 4.92037 12.1644C4.41596 11.6517 4.41596 10.8235 4.92037 10.3108C5.42478 9.79806 6.23952 9.79806 6.74392 10.3108C7.24833 10.8235 7.24833 11.6517 6.74392 12.1644C6.74008 12.1683 6.73528 12.1732 6.73143 12.1771C6.74104 12.1859 6.75161 12.1957 6.76122 12.2055C6.80253 12.2475 6.83808 12.2934 6.86979 12.3422L8.51272 10.6721C8.26099 10.4163 8.26099 9.99827 8.51272 9.74141L7.28869 8.49718C7.03696 8.75306 6.62575 8.75306 6.37306 8.49718L2.96807 11.9584C3.21979 12.2143 3.21979 12.6323 2.96807 12.8891L3.90963 13.8472ZM6.79773 13.4038C6.75353 13.4663 6.70261 13.5288 6.64208 13.5894L6.44993 13.7847L6.448 13.7798C6.46242 13.7876 6.47491 13.7974 6.48836 13.811L6.67187 13.9976C6.68147 14.0074 6.69108 14.02 6.69877 14.0318C6.90533 14.3189 6.87267 14.5758 6.73239 14.8101C6.75834 14.8199 6.78236 14.8346 6.80061 14.8541L6.98412 15.0406C6.99373 15.0504 7.00333 15.0631 7.01102 15.0748C7.23296 15.3854 7.17724 15.6559 7.01102 15.903C7.01871 15.9079 7.02543 15.9147 7.03312 15.9225L7.21663 16.1091C7.22623 16.1188 7.23584 16.1315 7.24353 16.1433C7.67011 16.7361 7.16186 17.239 6.75353 17.6453L6.64785 17.7527L6.19244 18.2381L6.17803 18.2528C5.76105 18.6376 5.34695 18.7401 4.86945 18.8583C4.7897 18.8778 4.70804 18.8993 4.59659 18.9276C4.5937 18.9276 4.59178 18.9296 4.5889 18.9296C4.33045 19.0009 4.09506 19.0185 3.88465 18.9804C3.6704 18.9413 3.48497 18.8436 3.33028 18.6893L1.74212 17.074C1.58071 16.9167 1.5269 16.7214 1.5711 16.4909C1.60665 16.3054 1.71137 16.1013 1.87759 15.8805L2.30225 13.435V13.4253C2.30609 13.395 2.31186 13.3608 2.31858 13.3237L1.5 12.4916L6.90245 7L10 10.1487L6.79773 13.4038Z" fill="black"/>
<path fill-rule="evenodd" clip-rule="evenodd" d="M7.31496 0.00142856L8.54567 0.0657452C9.12101 0.0964745 9.5677 0.591717 9.53768 1.167L9.47836 2.30684C10.0287 2.50336 10.5425 2.77064 11.0128 3.09794L11.9041 2.29469C12.3322 1.9095 12.9975 1.9438 13.3835 2.37259L14.209 3.28875C14.5942 3.71681 14.5592 4.38285 14.1311 4.76804L13.1734 5.6306C13.4106 6.11984 13.5851 6.63703 13.6929 7.16993L15.0073 7.23853C15.5819 7.26855 16.0286 7.76379 15.9986 8.33907L15.935 9.57039C15.9035 10.1464 15.4082 10.5923 14.8336 10.5616L13.5078 10.4923C13.3422 11.0055 13.1134 11.4962 12.8267 11.953L13.7051 12.9285C14.091 13.3565 14.056 14.0218 13.6272 14.4077L12.7117 15.2324C12.2828 15.6176 11.6175 15.5826 11.2322 15.1553L10.4025 14.2348C9.90454 14.5056 9.37363 14.7107 8.82298 14.8451L8.81011 15.0852C8.71935 13.7531 8.44562 12.7069 8.03109 11.8679C9.57913 11.6192 10.7963 10.3179 10.8813 8.68924C10.9792 6.81547 9.53911 5.21612 7.66445 5.11821C5.78979 5.02031 4.19101 6.4603 4.09309 8.33478C4.08666 8.45198 4.08666 8.56918 4.09238 8.68424C3.45343 8.44126 2.77733 8.2283 2.08478 8.01034C1.39009 7.79238 0.668245 7.56441 0 7.27069C0.0800465 7.1099 0.151517 6.9441 0.212982 6.77045C0.331622 6.68183 0.441685 6.58679 0.543173 6.48316L1.01845 6.50818C1.21307 5.8866 1.50053 5.298 1.87109 4.76232L1.27002 4.09557C0.884086 3.66822 0.919105 3.00146 1.34721 2.61628L2.26346 1.79087C2.69085 1.40569 3.35695 1.4407 3.74289 1.86877L4.39184 2.58984C4.94358 2.31899 5.53821 2.12532 6.16 2.01813L6.21361 0.992626C6.24434 0.41806 6.73963 -0.0285861 7.31496 0.00142856Z" fill="black"/>
</svg>
