<svg width="26" height="26" viewBox="0 0 26 26" fill="none" xmlns="http://www.w3.org/2000/svg">
<path d="M3.26657 25.5754C3.18289 25.5265 3.08747 25.5014 2.99056 25.5026C2.34361 25.3786 1.74182 25.0832 1.24806 24.6471C0.754306 24.2111 0.386722 23.6505 0.183658 23.0239C0.15581 22.9408 0.133989 22.8558 0.118426 22.7696C0.0937193 22.6288 0.0540334 22.4912 0 22.3589V5.79651C0.0613685 5.64758 0.107587 5.49294 0.137992 5.33475C0.157847 5.2335 0.184345 5.13365 0.217318 5.03588C0.471486 4.33249 0.932039 3.72214 1.5387 3.28474C2.14537 2.84733 2.8699 2.60326 3.61757 2.58433C3.80448 2.58433 3.99032 2.57783 4.17723 2.57783C4.36414 2.57783 4.57821 2.57781 4.77924 2.58433H4.78687C4.8508 2.59153 4.91551 2.58404 4.9761 2.56244C5.0367 2.54085 5.09155 2.50564 5.13651 2.45964C5.18147 2.41363 5.21534 2.35795 5.23554 2.29687C5.25573 2.2358 5.26172 2.17092 5.25305 2.10718C5.24218 1.81268 5.24653 1.52151 5.25305 1.30091C5.24989 1.20706 5.26572 1.11352 5.29957 1.02593C5.33343 0.938329 5.38464 0.858466 5.4501 0.791131C5.51557 0.723795 5.59395 0.670383 5.68055 0.63407C5.76716 0.597757 5.86021 0.579302 5.95412 0.579815C6.04803 0.580327 6.14088 0.599732 6.22708 0.636988C6.31329 0.674244 6.39108 0.728524 6.45581 0.796569C6.52053 0.864615 6.57085 0.945128 6.60375 1.03309C6.63665 1.12105 6.65147 1.21466 6.64729 1.30848C6.65381 1.60188 6.65273 1.86714 6.64729 2.11925C6.63956 2.18086 6.64572 2.24341 6.66537 2.30231C6.68501 2.36121 6.71761 2.41487 6.76078 2.4595C6.80395 2.50413 6.8566 2.53859 6.91482 2.56019C6.97304 2.58178 7.03535 2.59002 7.09718 2.58433C7.79919 2.58433 8.49973 2.58433 9.19883 2.58433C9.89794 2.58433 10.5974 2.58433 11.2972 2.58433C11.36 2.58815 11.4228 2.57903 11.4819 2.55753C11.541 2.53604 11.595 2.50263 11.6406 2.45937C11.6808 2.41339 11.7111 2.35962 11.7298 2.30151C11.7485 2.2434 11.7551 2.18213 11.7493 2.12137C11.7417 1.88665 11.7417 1.63777 11.7493 1.31285C11.7444 1.21795 11.759 1.1231 11.7921 1.03402C11.8252 0.944937 11.8761 0.863443 11.9418 0.794712C12.0074 0.725981 12.0863 0.671377 12.1738 0.634202C12.2613 0.597028 12.3554 0.578177 12.4504 0.578621C12.5454 0.579065 12.6394 0.598866 12.7265 0.636855C12.8136 0.674845 12.892 0.730146 12.957 0.799488C13.022 0.868829 13.0721 0.950733 13.1044 1.04012C13.1367 1.12951 13.1503 1.2245 13.1446 1.31935C13.1446 1.58125 13.1511 1.8421 13.1446 2.10399C13.1357 2.16754 13.1414 2.23225 13.1612 2.29329C13.181 2.35433 13.2144 2.41007 13.2588 2.45632C13.3033 2.50257 13.3577 2.53815 13.4179 2.56032C13.4781 2.58249 13.5426 2.5907 13.6065 2.58433C14.3237 2.58433 15.0391 2.58433 15.7527 2.58433C16.446 2.58433 17.1389 2.58433 17.8315 2.58433C17.8963 2.58842 17.9612 2.57926 18.0223 2.5574C18.0834 2.53554 18.1394 2.50136 18.1869 2.45712C18.2275 2.40925 18.258 2.35375 18.2767 2.29382C18.2954 2.23389 18.3018 2.17083 18.2955 2.10837C18.2836 1.82583 18.2879 1.54211 18.2955 1.30304C18.2922 1.20917 18.3079 1.11571 18.3416 1.02805C18.3753 0.940384 18.4264 0.860306 18.4917 0.792855C18.5571 0.725404 18.6354 0.671853 18.7219 0.635396C18.8085 0.59894 18.9015 0.580377 18.9955 0.580743C19.0894 0.581109 19.1823 0.600389 19.2685 0.637519C19.3548 0.674649 19.4327 0.728876 19.4975 0.796835C19.5624 0.864793 19.6128 0.945165 19.6458 1.03309C19.6789 1.12101 19.6938 1.21464 19.6897 1.30848V1.36936C19.6897 1.59974 19.7006 1.81704 19.6897 2.03329C19.6791 2.10633 19.6841 2.18091 19.7043 2.2519C19.7245 2.32289 19.7596 2.38871 19.8071 2.44518C19.8608 2.496 19.9244 2.53517 19.994 2.56005C20.0636 2.58494 20.1376 2.59505 20.2114 2.58977H20.57C20.7091 2.58977 20.8493 2.58977 20.9894 2.58977C21.2766 2.58661 21.5637 2.60185 21.849 2.6354C22.6263 2.76082 23.3442 3.12807 23.9006 3.68508C24.4571 4.2421 24.8237 4.96048 24.9483 5.73788C24.979 5.98117 24.9938 6.22624 24.9928 6.47145C24.9928 6.47145 24.9928 10.7291 24.9928 11.9451C25.002 12.0786 24.9714 12.2117 24.9048 12.3278C24.8383 12.4439 24.7388 12.5376 24.619 12.5971C24.5131 12.6601 24.3912 12.6912 24.2681 12.6868C24.1449 12.6823 24.0257 12.6425 23.9246 12.572C23.8126 12.5005 23.7228 12.3992 23.6652 12.2794C23.6076 12.1596 23.5845 12.0262 23.5986 11.894C23.5986 10.874 23.5986 9.8539 23.5986 8.83386V6.41919C23.6175 5.88464 23.4572 5.35909 23.1433 4.92605C22.9388 4.64215 22.6709 4.4098 22.361 4.2474C22.0511 4.08499 21.7076 3.99704 21.3578 3.99045C21.2057 3.98393 21.0535 3.98289 20.9014 3.98289H20.4167C20.3276 3.98289 20.2396 3.98289 20.1516 3.98289C20.0892 3.97819 20.0265 3.9866 19.9676 4.00756C19.9086 4.02852 19.8547 4.0615 19.8093 4.10453C19.768 4.15084 19.7366 4.20512 19.717 4.26398C19.6973 4.32283 19.6899 4.38509 19.6952 4.44691C19.7028 4.70011 19.7028 4.96523 19.6952 5.25755C19.6994 5.35137 19.6846 5.44511 19.6517 5.53307C19.6188 5.62103 19.5684 5.70141 19.5037 5.76945C19.439 5.8375 19.3612 5.89178 19.275 5.92904C19.1888 5.96629 19.0959 5.9857 19.002 5.98621C18.9081 5.98672 18.815 5.96827 18.7284 5.93195C18.6418 5.89564 18.5635 5.84223 18.498 5.77489C18.4325 5.70756 18.3814 5.62769 18.3475 5.5401C18.3136 5.4525 18.2978 5.35897 18.301 5.26511C18.2944 4.99452 18.301 4.72182 18.301 4.45341C18.308 4.39074 18.302 4.32725 18.2833 4.26703C18.2646 4.2068 18.2336 4.15112 18.1923 4.10347C18.1493 4.06182 18.0981 4.02957 18.042 4.00862C17.9859 3.98768 17.9261 3.97856 17.8663 3.98183C17.1512 3.98183 16.4394 3.98183 15.7266 3.98183H13.5901C13.5305 3.97729 13.4706 3.98587 13.4146 4.00716C13.3587 4.02846 13.3082 4.06185 13.2667 4.10493C13.2252 4.14801 13.1937 4.19976 13.1744 4.25642C13.1552 4.31308 13.1487 4.37326 13.1555 4.43271C13.162 4.7033 13.162 4.97613 13.1555 5.24455C13.1614 5.33938 13.1479 5.43434 13.1158 5.52378C13.0838 5.61322 13.0338 5.6952 12.969 5.76468C12.9042 5.83415 12.8259 5.88966 12.7389 5.92784C12.6519 5.96602 12.558 5.98607 12.463 5.98674C12.368 5.9874 12.2738 5.96878 12.1863 5.93182C12.0988 5.89486 12.0197 5.8404 11.9539 5.77184C11.8881 5.70328 11.837 5.62205 11.8037 5.53307C11.7704 5.44408 11.7556 5.34913 11.7602 5.25423C11.7536 4.93909 11.7536 4.68155 11.7602 4.44465C11.7678 4.38287 11.7615 4.32018 11.7416 4.26119C11.7217 4.20221 11.6887 4.14849 11.6451 4.104C11.6016 4.05951 11.5486 4.02541 11.49 4.00424C11.4315 3.98308 11.3689 3.97547 11.307 3.98183H9.16623H7.10153C7.03948 3.97558 6.97683 3.98341 6.91824 4.00478C6.85965 4.02614 6.80663 4.06047 6.76316 4.10519C6.7197 4.14991 6.68688 4.20388 6.66719 4.26305C6.6475 4.32222 6.64144 4.38506 6.64945 4.44691C6.65706 4.67837 6.64945 4.90985 6.64945 5.1424V5.20979C6.65872 5.30657 6.64775 5.40414 6.61725 5.49645C6.58675 5.58877 6.5374 5.67377 6.47229 5.74597C6.40719 5.81818 6.32776 5.87604 6.23909 5.9159C6.15041 5.95576 6.05442 5.9767 5.9572 5.97745C5.85998 5.97821 5.76364 5.95875 5.67435 5.92028C5.58507 5.88181 5.50478 5.82525 5.43856 5.75407C5.37234 5.68288 5.32163 5.59863 5.28969 5.5068C5.25776 5.41497 5.24528 5.31758 5.25305 5.22067C5.25305 5.06853 5.25305 4.91632 5.25305 4.76527V4.42303C5.26106 4.36485 5.25649 4.30563 5.23962 4.24939C5.22274 4.19314 5.19396 4.14112 5.15525 4.09697C5.11872 4.05929 5.07471 4.0296 5.02604 4.00995C4.97738 3.9903 4.92515 3.98114 4.8727 3.98289C4.79446 3.98289 4.73579 3.98289 4.6782 3.98289C4.56301 3.98289 4.44783 3.98291 4.33264 3.97639C4.21745 3.96987 4.09029 3.96869 3.96967 3.96869C3.68263 3.96281 3.39611 3.99532 3.1177 4.0654C2.6189 4.19328 2.17801 4.48617 1.86669 4.89633C1.55537 5.3065 1.39192 5.80992 1.4029 6.32474C1.4029 6.67031 1.4029 7.01691 1.4029 7.36248V21.7513C1.37765 22.278 1.53332 22.7975 1.84407 23.2235C2.15482 23.6495 2.60197 23.9564 3.1112 24.0932C3.35613 24.1576 3.60893 24.1868 3.86208 24.1801H7.36992H11.2364C11.3821 24.163 11.5295 24.1901 11.6597 24.2577C11.7899 24.3253 11.8968 24.4303 11.9666 24.5593C12.0147 24.6476 12.0425 24.7455 12.0481 24.8458C12.0538 24.9462 12.0371 25.0466 11.9992 25.1397C11.9617 25.2323 11.9046 25.3157 11.8319 25.3841C11.7591 25.4526 11.6723 25.5045 11.5776 25.5363C11.5292 25.5427 11.4822 25.5569 11.4385 25.5786L3.26657 25.5754Z" fill="#163E6A"/>
<path d="M18.7813 25.5708C18.6234 25.5109 18.4582 25.4722 18.2901 25.4556C18.2 25.4456 18.1107 25.4296 18.0228 25.4077C16.9818 25.1603 16.0339 24.6192 15.2916 23.8487C14.5494 23.0781 14.044 22.1104 13.8357 21.061C13.6087 19.9493 13.7215 18.7951 14.1595 17.7485C14.5976 16.7019 15.3405 15.8115 16.2917 15.1929C17.2208 14.6034 18.296 14.2845 19.3963 14.2725C20.6749 14.2792 21.9112 14.7315 22.8922 15.5515C23.6849 16.1475 24.294 16.9544 24.65 17.88C25.0061 18.8055 25.0947 19.8126 24.9059 20.7861C24.7655 21.8224 24.3313 22.7968 23.6545 23.5941C22.9778 24.3914 22.0869 24.9781 21.0872 25.285C20.7321 25.4085 20.3631 25.4876 19.9886 25.5207H19.981C19.9133 25.5195 19.8464 25.534 19.7854 25.5632L18.7813 25.5708ZM19.3442 15.6624C18.2166 15.6684 17.137 16.119 16.3398 16.9164C15.5426 17.7138 15.0922 18.7935 15.0865 19.9211C15.0846 20.7656 15.3332 21.5918 15.801 22.295C16.2687 22.9982 16.9346 23.5468 17.7143 23.8715C18.4939 24.1961 19.3524 24.2822 20.181 24.1187C21.0096 23.9553 21.7711 23.5497 22.3691 22.9534C22.9671 22.357 23.3748 21.5967 23.5406 20.7686C23.7063 19.9405 23.6226 19.0817 23.3002 18.3011C22.9777 17.5205 22.431 16.8532 21.7291 16.3835C21.0272 15.9138 20.2018 15.6628 19.3572 15.6624H19.3453H19.3442Z" fill="#F9AC1B"/>
<path d="M5.93116 11.4581C5.74959 11.4567 5.57604 11.3833 5.44867 11.2538C5.32129 11.1244 5.25053 10.9496 5.25197 10.7681C5.25342 10.5865 5.32692 10.413 5.45633 10.2856C5.58574 10.1582 5.76046 10.0874 5.94203 10.0889C6.12361 10.0889 6.29773 10.1611 6.42612 10.2895C6.55451 10.4178 6.62662 10.5919 6.62662 10.7735C6.62662 10.9551 6.55451 11.1293 6.42612 11.2577C6.29773 11.3861 6.12361 11.4581 5.94203 11.4581H5.93116Z" fill="#F9AC1B"/>
<path d="M10.292 11.4581C10.1113 11.4547 9.93893 11.381 9.81169 11.2525C9.68445 11.1241 9.61235 10.9511 9.61069 10.7703C9.61133 10.6351 9.65204 10.503 9.72765 10.3908C9.80327 10.2786 9.91042 10.1914 10.0356 10.1401C10.1607 10.0888 10.2983 10.0756 10.4308 10.1024C10.5634 10.1292 10.6851 10.1948 10.7806 10.2906C10.876 10.3865 10.9408 10.5084 10.967 10.6411C10.9931 10.7738 10.9794 10.9114 10.9275 11.0363C10.8756 11.1612 10.7878 11.2679 10.6753 11.343C10.5628 11.4181 10.4306 11.4581 10.2953 11.4581H10.292Z" fill="#F9AC1B"/>
<path d="M14.6497 11.4581C14.4682 11.4578 14.2943 11.3856 14.1659 11.2573C14.0376 11.1289 13.9654 10.955 13.9651 10.7735C13.9673 10.5926 14.0402 10.4199 14.1681 10.292C14.296 10.1641 14.4688 10.0911 14.6497 10.0889C14.8309 10.09 15.0044 10.1625 15.1325 10.2906C15.2607 10.4188 15.3332 10.5923 15.3343 10.7735C15.3318 10.9543 15.2589 11.127 15.131 11.2549C15.0032 11.3827 14.8305 11.4556 14.6497 11.4581Z" fill="#F9AC1B"/>
<path d="M19.0051 11.4581C18.8245 11.4579 18.6512 11.3864 18.5229 11.2593C18.3945 11.1322 18.3214 10.9596 18.3194 10.7789C18.3194 10.5978 18.3906 10.424 18.5177 10.2949C18.6447 10.1658 18.8175 10.0917 18.9986 10.0889C19.1802 10.0874 19.3549 10.1582 19.4843 10.2856C19.6137 10.413 19.6872 10.5865 19.6886 10.7681C19.6901 10.9496 19.6193 11.1244 19.492 11.2538C19.3646 11.3833 19.191 11.4567 19.0095 11.4581H19.0051Z" fill="#F9AC1B"/>
<path d="M5.94094 20.169C5.75964 20.1687 5.58585 20.0966 5.45755 19.9685C5.32925 19.8404 5.25689 19.6667 5.25632 19.4854C5.25632 19.3038 5.32843 19.1297 5.45682 19.0014C5.58521 18.873 5.75937 18.8008 5.94094 18.8008C6.12251 18.8008 6.29663 18.873 6.42502 19.0014C6.55341 19.1297 6.62556 19.3038 6.62556 19.4854C6.62443 19.6665 6.5521 19.84 6.42422 19.9683C6.29634 20.0965 6.12316 20.1694 5.94203 20.1711L5.94094 20.169Z" fill="#F9AC1B"/>
<path d="M10.2953 20.1691C10.115 20.1686 9.9422 20.0971 9.81412 19.9703C9.68603 19.8434 9.61297 19.6713 9.61069 19.491C9.60977 19.4011 9.62656 19.3119 9.66011 19.2285C9.69365 19.1451 9.74331 19.0691 9.80622 19.0048C9.86914 18.9406 9.94409 18.8894 10.0268 18.8541C10.1095 18.8189 10.1983 18.8003 10.2883 18.7994C10.3782 18.7984 10.4674 18.8152 10.5508 18.8487C10.6342 18.8822 10.7102 18.932 10.7744 18.9949C10.8387 19.0578 10.8899 19.1328 10.9251 19.2155C10.9604 19.2982 10.979 19.387 10.9799 19.4769C10.9805 19.6582 10.9097 19.8323 10.7827 19.9617C10.6558 20.091 10.483 20.1652 10.3018 20.1681L10.2953 20.1691Z" fill="#F9AC1B"/>
<path d="M20.0636 20.5183C19.8042 20.5183 19.5452 20.5125 19.2866 20.5009C19.1165 20.4913 18.9569 20.4156 18.842 20.2899C18.727 20.1641 18.6659 19.9985 18.6715 19.8282C18.6639 19.5968 18.6715 19.3652 18.6715 19.1338V18.5144C18.6715 18.2873 18.6715 18.0602 18.6715 17.8331C18.6686 17.741 18.6842 17.6492 18.7176 17.5633C18.751 17.4774 18.8014 17.3991 18.8657 17.3332C18.9301 17.2672 19.0071 17.2148 19.0921 17.1793C19.1772 17.1438 19.2685 17.1258 19.3607 17.1265C19.4529 17.1271 19.5439 17.1464 19.6285 17.1831C19.713 17.2198 19.7893 17.2733 19.8527 17.3402C19.9161 17.4071 19.9653 17.4861 19.9974 17.5725C20.0296 17.6588 20.0439 17.7507 20.0397 17.8428C20.0462 18.1373 20.0462 18.4221 20.0397 18.6873C20.0338 18.7479 20.0404 18.8089 20.0591 18.8669C20.0778 18.9248 20.1082 18.9783 20.1483 19.0241C20.1902 19.0647 20.2399 19.0964 20.2945 19.1169C20.3491 19.1375 20.4074 19.1465 20.4657 19.1436H20.545H20.6939C20.7758 19.1412 20.8577 19.15 20.9373 19.1697C21.0944 19.2085 21.2327 19.3014 21.328 19.4323C21.4232 19.5631 21.4692 19.7233 21.4578 19.8847C21.4478 20.0437 21.3811 20.1939 21.2698 20.3079C21.1586 20.4219 21.0101 20.4924 20.8514 20.5063C20.5899 20.5143 20.3273 20.5183 20.0636 20.5183Z" fill="#163E6A"/>
</svg>
