<svg width="30" height="30" viewBox="0 0 30 30" fill="none" xmlns="http://www.w3.org/2000/svg">
<g filter="url(#filter0_d_11_118)">
<circle cx="15" cy="14" r="14" fill="#FCFCFC"/>
<circle cx="15" cy="14" r="13.5" stroke="#246376"/>
</g>
<path d="M7.15909 19C6.83712 19 6.56345 18.8854 6.33807 18.6562C6.11269 18.4271 6 18.1488 6 17.8214V9.17857C6 8.85119 6.11269 8.57292 6.33807 8.34375C6.56345 8.11458 6.83712 8 7.15909 8H15.6591C15.9811 8 16.2547 8.11458 16.4801 8.34375C16.7055 8.57292 16.8182 8.85119 16.8182 9.17857V17.8214C16.8182 18.1488 16.7055 18.4271 16.4801 18.6562C16.2547 18.8854 15.9811 19 15.6591 19H7.15909ZM19.1364 12.7143C18.9174 12.7143 18.7339 12.639 18.5858 12.4884C18.4377 12.3378 18.3636 12.1512 18.3636 11.9286V8.78571C18.3636 8.5631 18.4377 8.37649 18.5858 8.22589C18.7339 8.0753 18.9174 8 19.1364 8H22.2273C22.4462 8 22.6297 8.0753 22.7778 8.22589C22.9259 8.37649 23 8.5631 23 8.78571V11.9286C23 12.1512 22.9259 12.3378 22.7778 12.4884C22.6297 12.639 22.4462 12.7143 22.2273 12.7143H19.1364ZM19.5227 11.5357H21.8409V9.17857H19.5227V11.5357ZM7.15909 17.8214H15.6591V9.17857H7.15909V17.8214ZM8.31818 15.8571H14.5L12.4716 13.1071L11.0227 15.0714L9.96023 13.6375L8.31818 15.8571ZM19.1364 19C18.9174 19 18.7339 18.9247 18.5858 18.7741C18.4377 18.6235 18.3636 18.4369 18.3636 18.2143V15.0714C18.3636 14.8488 18.4377 14.6622 18.5858 14.5116C18.7339 14.361 18.9174 14.2857 19.1364 14.2857H22.2273C22.4462 14.2857 22.6297 14.361 22.7778 14.5116C22.9259 14.6622 23 14.8488 23 15.0714V18.2143C23 18.4369 22.9259 18.6235 22.7778 18.7741C22.6297 18.9247 22.4462 19 22.2273 19H19.1364ZM19.5227 17.8214H21.8409V15.4643H19.5227V17.8214ZM7.15909 17.8214V9.17857V17.8214ZM19.5227 11.5357V9.17857V11.5357ZM19.5227 17.8214V15.4643V17.8214Z" fill="black"/>
<defs>
<filter id="filter0_d_11_118" x="0" y="0" width="30" height="30" filterUnits="userSpaceOnUse" color-interpolation-filters="sRGB">
<feFlood flood-opacity="0" result="BackgroundImageFix"/>
<feColorMatrix in="SourceAlpha" type="matrix" values="0 0 0 0 0 0 0 0 0 0 0 0 0 0 0 0 0 0 127 0" result="hardAlpha"/>
<feOffset dy="1"/>
<feGaussianBlur stdDeviation="0.5"/>
<feComposite in2="hardAlpha" operator="out"/>
<feColorMatrix type="matrix" values="0 0 0 0 0 0 0 0 0 0 0 0 0 0 0 0 0 0 0.25 0"/>
<feBlend mode="normal" in2="BackgroundImageFix" result="effect1_dropShadow_11_118"/>
<feBlend mode="normal" in="SourceGraphic" in2="effect1_dropShadow_11_118" result="shape"/>
</filter>
</defs>
</svg>
