<svg width="42" height="42" viewBox="0 0 42 42" fill="none" xmlns="http://www.w3.org/2000/svg">
<path fill-rule="evenodd" clip-rule="evenodd" d="M21 0C22.2633 0 23.408 0.511294 24.2356 1.3361C25.0641 2.1609 25.5764 3.30166 25.5764 4.56144C25.5764 4.98081 25.5195 5.38706 25.4133 5.77278L35.3813 13.4882C35.4414 13.5349 35.4949 13.5866 35.5427 13.6416H38.822C39.6917 13.6416 40.4864 13.9986 41.0628 14.5715L41.0669 14.5756C41.6434 15.1525 42 15.9429 42 16.8095V38.8337C42 39.7053 41.6426 40.4973 41.0669 41.071C40.4921 41.6438 39.6966 42 38.822 42H3.17306C2.30259 42 1.51118 41.6446 0.936353 41.0734C0.640895 40.781 0.406414 40.4332 0.246419 40.0501C0.0864233 39.667 0.00407494 39.2561 0.00411765 38.8411L0 16.8095C0 15.9379 0.357412 15.1443 0.932235 14.5715C1.50788 13.9986 2.30341 13.6416 3.178 13.6416H6.45729C6.50506 13.5866 6.55859 13.5349 6.61871 13.4882L16.5867 5.7736C16.4805 5.38788 16.4228 4.98081 16.4228 4.56144C16.4228 3.30166 16.9359 2.1609 17.7635 1.3361C18.592 0.510474 19.7359 0 21 0ZM7.69012 22.7924C7.19024 22.7924 6.78506 22.3878 6.78506 21.8905C6.78506 21.3923 7.19024 20.9885 7.69012 20.9885H34.3099C34.8098 20.9885 35.2149 21.3923 35.2149 21.8905C35.2149 22.3878 34.8098 22.7924 34.3099 22.7924H7.69012ZM7.69012 28.7236C7.19024 28.7236 6.78506 28.3198 6.78506 27.8216C6.78506 27.3235 7.19024 26.9197 7.69012 26.9197H34.3099C34.8098 26.9197 35.2149 27.3235 35.2149 27.8216C35.2149 28.3198 34.8098 28.7236 34.3099 28.7236H7.69012ZM11.6842 34.6548C11.1844 34.6548 10.7792 34.251 10.7792 33.7528C10.7792 33.2555 11.1844 32.8509 11.6842 32.8509H30.3166C30.8165 32.8509 31.2216 33.2555 31.2216 33.7528C31.2216 34.251 30.8165 34.6548 30.3166 34.6548H11.6842ZM32.0254 13.6416L24.332 7.68747L24.2356 7.78595C23.408 8.61158 22.2633 9.12205 21 9.12205C19.7359 9.12205 18.592 8.61158 17.7635 7.78595L17.668 7.68747L9.97541 13.6416H32.0254ZM38.822 15.6466H3.178C2.85765 15.6466 2.56529 15.7779 2.35365 15.988C2.13502 16.2059 2.0121 16.5014 2.01188 16.8095V38.8411C2.00776 39.1546 2.14035 39.4443 2.35365 39.6569C2.562 39.8662 2.85271 39.9959 3.17306 39.9959H38.822C39.1415 39.9959 39.4347 39.8645 39.6455 39.6544C39.8572 39.4435 39.9881 39.1522 39.9881 38.8337V16.8095C39.9881 16.487 39.858 16.1965 39.6488 15.988L39.6455 15.9847C39.5373 15.8771 39.4089 15.7919 39.2676 15.7338C39.1263 15.6758 38.9748 15.6462 38.822 15.6466ZM21 2.63198C21.5345 2.63198 22.0187 2.84782 22.3687 3.19662C22.5486 3.37575 22.6913 3.58852 22.7885 3.82273C22.8858 4.05694 22.9356 4.30797 22.9353 4.56144C22.9353 5.09407 22.7187 5.57582 22.3687 5.92543C22.1891 6.10474 21.9758 6.24693 21.7409 6.34383C21.506 6.44072 21.2542 6.49042 21 6.49007C20.4655 6.49007 19.9813 6.27423 19.6313 5.92543C19.2805 5.57582 19.0639 5.09407 19.0639 4.56144C19.0639 4.0288 19.2805 3.54541 19.6313 3.19662C19.8109 3.01731 20.0242 2.87512 20.2591 2.77822C20.494 2.68133 20.7458 2.63162 21 2.63198Z" fill="black"/>
</svg>
